<?xml version="1.0" encoding="UTF-8"?>
<svg width="158px" height="64px" viewBox="0 0 158 64" version="1.1" xmlns="http://www.w3.org/2000/svg" xmlns:xlink="http://www.w3.org/1999/xlink">
    <!-- Generator: Sketch 49 (51002) - http://www.bohemiancoding.com/sketch -->
    <title>bigbasket</title>
    <desc>Created with Sketch.</desc>
    <defs></defs>
    <g id="Thank-you-page" stroke="none" stroke-width="1" fill="none" fill-rule="evenodd">
        <g id="Thank-you-Page-Icons_web" transform="translate(-447.000000, -113.000000)">
            <g id="bigbasket" transform="translate(447.000000, 113.000000)">
                <g id="Group-3" transform="translate(0.000000, 0.417784)" fill="#A5CD38">
                    <path d="M9.4088488,0.219470588 L53.4642424,0.219470588 C58.6521713,0.219470588 62.9612325,4.4457451 62.9612325,9.55270588 L62.9612325,53.6666765 C62.9612325,58.8615784 58.6521713,63.0884902 53.4642424,63.0884902 L9.4088488,63.0884902 C4.22091986,63.0884902 -0.000318199763,58.8615784 -0.000318199763,53.6666765 L-0.000318199763,9.55270588 C-0.000318199763,4.4457451 4.22091986,0.219470588 9.4088488,0.219470588" id="Fill-1"></path>
                </g>
                <path d="M79.5808698,24.4991373 C78.8776483,25.6436471 77.910321,26.1719314 76.5910648,26.1719314 C75.6237375,26.1719314 74.8326929,25.9081078 74.2166582,25.3798235 C73.5134367,24.8515392 72.9858615,24.0587941 72.7217557,23.1787451 C72.3698268,22.2980588 72.1941805,21.4173725 72.1941805,20.3608039 C72.1941805,19.3921765 72.3698268,18.5114902 72.7217557,17.5428627 C72.9858615,16.6628137 73.5134367,15.9580098 74.2166582,15.4303627 C74.8326929,14.9014412 75.6237375,14.6376176 76.5910648,14.6376176 C77.470569,14.6376176 78.1737904,14.9014412 78.7891888,15.4303627 C79.4052235,15.9580098 79.8449756,16.6628137 80.1962681,17.4549216 C80.4603739,18.423549 80.6360202,19.3921765 80.6360202,20.4487451 C80.6360202,22.033598 80.2840913,23.4425686 79.5808698,24.4991373 M84.7687987,15.7821275 C84.2412235,14.3731569 83.3617194,13.2286471 82.2193822,12.2600196 C81.0757723,11.3793333 79.6686929,10.9389902 78.0859673,10.9389902 C76.9423574,10.9389902 75.8878433,11.203451 74.9205161,11.6437941 C73.8653657,12.0841373 73.0736846,12.7003627 72.5461094,13.581049 L72.4582863,13.581049 L72.4582863,2.22198039 L67.6216499,2.22198039 L67.6216499,29.7826176 C67.6216499,29.7826176 72.0185342,30.310902 72.1941805,27.4050196 L72.1941805,27.0526176 L72.2820036,27.2285 C72.3698268,27.4050196 72.5461094,27.6688431 72.8095788,28.0212451 C73.1615078,28.4615882 73.7769061,28.8139902 74.6564103,29.2536961 C75.5359144,29.6940392 76.678888,29.8705588 78.0859673,29.8705588 C79.6686929,29.8705588 81.0757723,29.4302157 82.2193822,28.5495294 C83.3617194,27.6688431 84.2412235,26.4363922 84.7687987,25.0274216 C85.3848335,23.5305098 85.6483029,22.033598 85.6483029,20.4487451 C85.6483029,18.8638922 85.3848335,17.2790392 84.7687987,15.7821275" id="Fill-4" fill="#EC1D24"></path>
                <path d="M86.9671773,29.8704314 L91.8038137,29.8704314 L91.8038137,11.4677843 L86.9671773,11.4677843 L86.9671773,29.8704314 Z M86.9678137,6.2722451 L91.8044501,6.2722451 L91.8044501,2.2224902 L86.9678137,2.2224902 L86.9678137,6.2722451 Z" id="Fill-6" fill="#EC1D24"></path>
                <path d="M105.961348,22.0337892 C105.785702,22.6500147 105.60942,23.178299 105.258127,23.6186422 C104.906198,24.0589853 104.466446,24.41075 103.938871,24.6752108 C103.411296,25.0276127 102.795261,25.1155539 102.092039,25.1155539 C101.388181,25.1155539 100.77342,24.9396716 100.245844,24.6752108 C99.7176327,24.3234461 99.3663402,23.8824657 99.0144112,23.3548186 C98.7509418,22.9138382 98.486836,22.29825 98.3990129,21.6813873 C98.2233666,21.0651618 98.2233666,20.3609951 98.2233666,19.7441324 C98.2233666,19.0399657 98.3111897,18.4237402 98.3990129,17.8075147 C98.5752955,17.190652 98.8387649,16.6623676 99.1028707,16.2220245 C99.4541633,15.6937402 99.8939154,15.3419755 100.333667,15.0775147 C100.860606,14.8136912 101.476641,14.6378088 102.092039,14.6378088 C102.88372,14.6378088 103.587578,14.8136912 104.115153,15.0775147 C104.642729,15.4299167 105.081844,15.7816814 105.34595,16.3106029 C105.697243,16.8388873 105.872889,17.4551127 106.049172,18.0713382 C106.136995,18.688201 106.224818,19.3923676 106.224818,20.1844755 C106.224818,20.800701 106.136995,21.4175637 105.961348,22.0337892 M106.224818,13.8450637 L106.136995,13.8450637 C105.60942,12.7884951 104.818375,12.0843284 103.938871,11.6439853 C103.059367,11.2030049 102.092039,10.9391814 100.949066,10.9391814 C99.7176327,10.9391814 98.5752955,11.2030049 97.6957914,11.6439853 C96.7278277,12.1716324 95.9367831,12.7884951 95.3213848,13.6691814 C94.6181633,14.4612892 94.1777748,15.4299167 93.8264823,16.4864853 C93.4745533,17.5430539 93.3867302,18.688201 93.3867302,19.8327108 C93.3867302,21.0651618 93.4745533,22.2096716 93.7386591,23.2662402 C94.0905881,24.41075 94.5297038,25.3793775 95.1457385,26.1721225 C95.7611368,26.9648676 96.5521814,27.6690343 97.5195087,28.1093775 C98.3990129,28.5497206 99.5419864,28.8135441 100.860606,28.8135441 C101.916393,28.8135441 102.971543,28.6376618 103.938871,28.1973186 C104.906198,27.6690343 105.697243,26.9648676 106.136995,26.0841814 L106.224818,26.0841814 L106.224818,28.373201 C106.313277,29.6942304 105.961348,30.750799 105.34595,31.5435441 C104.729915,32.4235931 103.763224,32.7759951 102.356145,32.7759951 C101.476641,32.7759951 100.77342,32.6001127 100.069562,32.2477108 C99.4541633,31.8959461 98.9265881,31.2790833 98.7509418,30.3983971 L93.9143054,30.3983971 C94.0021285,31.3670245 94.2662343,32.2477108 94.7931732,32.9518775 C95.2335616,33.6566814 95.84896,34.2729069 96.640641,34.71325 C97.3438625,35.2415343 98.1349071,35.593299 99.1028707,35.7698186 C99.9817385,36.0342794 100.860606,36.1215833 101.74011,36.1215833 C103.763224,36.1215833 105.34595,35.8577598 106.577383,35.2415343 C107.720357,34.71325 108.687048,34.0090833 109.303082,33.2163382 C109.918481,32.4235931 110.358233,31.6314853 110.533879,30.6628578 C110.797985,29.7821716 110.885808,28.9014853 110.885808,28.1973186 L110.885808,11.4674657 L110.27041,11.4674657 C106.400464,11.5554069 106.224818,13.8450637 106.224818,13.8450637" id="Fill-8" fill="#EC1D24"></path>
                <path d="M157.315163,46.1598775 L157.315163,45.8074755 C157.051693,43.6943382 154.413181,43.6943382 154.413181,43.6943382 L154.413181,34.1845833 L151.423376,34.1845833 L151.423376,43.6943382 L148.961146,43.6943382 L148.961146,46.1598775 L151.423376,46.1598775 L151.423376,58.1351716 C151.423376,60.2483088 152.039411,62.0090441 155.028579,62.0090441 C155.380508,62.0090441 156.260012,61.8331618 157.315163,61.7452206 L157.315163,59.3676225 L156.260012,59.3676225 C155.644614,59.3676225 154.413181,59.3676225 154.413181,57.958652 L154.413181,46.1598775 L157.315163,46.1598775 Z" id="Fill-9" fill="#231F20"></path>
                <path d="M132.166181,44.7512892 C130.494996,42.9899167 128.472518,44.5754069 128.121225,44.9271716 L121.349934,51.5310441 L121.349934,34.1849657 L118.447953,34.1849657 L118.447953,62.0094265 L121.349934,62.0094265 L121.349934,55.1410931 L123.899987,52.8520735 L129.527668,62.0094265 L133.396977,62.0094265 L126.098748,50.6503578 L132.166181,44.7512892 Z" id="Fill-10" fill="#231F20"></path>
                <path d="M111.50127,51.2669657 L108.511465,50.4742206 C106.137058,49.8579951 105.170367,49.5055931 105.170367,48.0972598 C105.170367,45.8076029 107.896067,45.5437794 108.775571,45.5437794 C110.798048,45.5437794 111.853199,45.9834853 112.380774,46.6882892 C112.380774,46.6882892 114.051323,48.6249069 115.985977,48.0086814 C115.810331,46.5124069 114.667358,42.9023578 109.1275,42.9023578 C105.52166,42.9023578 102.267749,44.6630931 102.267749,48.6249069 C102.267749,51.0910833 103.938934,52.4114755 106.488987,53.027701 L110.006367,53.9083873 C112.55642,54.5246127 113.523748,55.0528971 113.523748,56.4618676 C113.523748,58.4870637 111.589729,59.36775 109.390969,59.36775 C105.170367,59.36775 104.729979,57.0780931 104.642792,55.6697598 L101.652351,55.6697598 C101.828634,57.8708382 102.356209,62.0091716 109.478792,62.0091716 C113.523748,62.0091716 116.601376,59.720152 116.601376,56.0215245 C116.601376,53.5559853 115.28212,52.147652 111.50127,51.2669657" id="Fill-11" fill="#231F20"></path>
                <path d="M140.60783,45.6315294 C144.300856,45.6315294 145.444466,48.1850098 145.620112,51.002951 L138.1456,51.002951 L137.881494,51.002951 C136.73852,51.0908922 136.034663,51.6191765 135.595547,52.1474608 L135.595547,51.002951 C135.595547,48.1850098 137.793671,45.6315294 140.60783,45.6315294 M140.871299,59.3675588 C137.353919,59.3675588 135.595547,57.1664804 135.595547,53.3799118 L148.785564,53.3799118 C148.785564,47.0405 146.235511,42.9021667 141.046945,42.9021667 C135.067972,42.9021667 132.341636,47.3043235 132.341636,52.9402059 C132.341636,58.1351078 135.331441,62.0089804 140.432183,62.0089804 C143.333529,62.0089804 144.476502,61.3048137 145.356006,60.6885882 C147.64259,59.1916765 148.433635,56.6381961 148.522094,55.7575098 L145.531653,55.7575098 C145.356006,57.1664804 143.685458,59.3675588 140.871299,59.3675588" id="Fill-12" fill="#231F20"></path>
                <path d="M96.376217,55.2292255 C96.376217,57.6068235 93.5626947,59.4555 90.748536,59.4555 C88.4625889,59.4555 87.4952616,58.3109902 87.4952616,56.2857941 C87.4952616,53.9961373 89.8690318,53.5564314 91.3645707,53.3799118 C95.1454203,52.8522647 95.8492782,52.5871667 96.376217,52.235402 L96.376217,55.2292255 Z M100.421172,59.3675588 C99.8064104,59.3675588 99.366022,59.1037353 99.366022,58.3109902 L99.366022,47.9211863 C99.366022,43.2539314 94.178093,42.9021667 92.6831905,42.9021667 C88.2869426,42.9021667 85.4727839,44.5749608 85.2965012,48.7132941 C86.9676864,48.9771176 88.0228368,48.0084902 88.4625889,47.3043235 C88.550412,47.1284412 88.6382351,46.9525588 88.8138814,46.7760392 C89.3414566,45.9839314 90.3087839,45.3670686 92.1556153,45.3670686 C95.0575972,45.3670686 96.4646765,46.4242745 96.4646765,48.3615294 C96.4646765,50.1222647 95.5851724,50.3860882 94.8813145,50.4746667 L89.8690318,51.0908922 C84.768926,51.7071176 84.3291739,55.2292255 84.3291739,56.7261373 C84.3291739,59.8958431 86.7035806,62.0089804 90.0453145,62.0089804 C93.5626947,62.0089804 95.321703,60.3361863 96.5518632,59.0151569 C96.6403228,60.4241275 97.0794385,61.833098 99.7179509,61.833098 C100.421172,61.833098 100.860924,61.5692745 101.3885,61.4806961 L101.3885,59.2796176 C101.036571,59.2796176 100.685278,59.3675588 100.421172,59.3675588 Z" id="Fill-13" fill="#231F20"></path>
                <path d="M75.4480276,59.3676863 C73.5133731,59.3676863 70.5235681,58.0466569 70.5235681,53.292098 C70.5235681,50.2982745 71.0511433,45.6316569 75.3602045,45.6316569 C80.1083814,45.6316569 80.3724872,50.034451 80.3724872,52.4114118 C80.3724872,56.3738627 78.7891251,59.3676863 75.4480276,59.3676863 M75.9756028,42.9022941 C73.865302,42.9022941 72.0184706,43.7823431 70.7876739,45.719598 L70.6992144,45.719598 L70.6992144,34.1846471 L67.6215863,34.1846471 L67.6215863,61.4808235 L68.7651962,61.4808235 C70.3472854,61.3928824 70.5235681,59.9839118 70.5235681,59.7200882 L70.5235681,59.1918039 L70.6113912,59.1918039 C71.227426,60.2483725 72.4582227,62.0091078 75.5358508,62.0091078 C81.6917434,62.0091078 83.4501153,56.1979804 83.4501153,51.8831275 C83.4501153,46.7761667 80.7244161,42.9022941 75.9756028,42.9022941" id="Fill-14" fill="#231F20"></path>
                <path d="M32.9239386,8.51767647 L27.9116559,8.51767647 L27.9116559,22.0759118 C29.7024842,22.0536078 31.3921249,22.6309608 32.9239386,23.6046863 L32.9239386,8.51767647 Z" id="Fill-15" fill="#231F20"></path>
                <path d="M29.2307848,46.5559951 C28.0878113,48.49325 26.4166261,49.373299 24.1300426,49.373299 C22.5479534,49.373299 21.2286972,48.9335931 20.0857236,48.0529069 C18.9421137,47.0842794 18.063246,45.8518284 17.5356707,44.3549167 C17.0074591,42.8580049 16.6561666,41.2725147 16.6561666,39.5997206 C16.6561666,37.9269265 17.0074591,36.2541324 17.5356707,34.7572206 C18.063246,33.2603088 18.9421137,32.0278578 20.0857236,31.1471716 C21.2286972,30.1785441 22.5479534,29.738201 24.1300426,29.738201 C25.6249451,29.738201 26.9442013,30.1785441 27.9993518,31.0592304 C28.966679,31.9392794 29.75836,33.1723676 30.2859353,34.6692794 C30.7256873,36.1661912 30.9897931,37.7510441 30.9897931,39.5997206 C30.9897931,42.4176618 30.3737584,44.7073186 29.2307848,46.5559951 M38.1123766,31.7633971 C37.1450493,29.2978578 35.6501469,27.2726618 33.7154923,25.77575 C31.7808377,24.2788382 29.4948906,23.4867304 26.7685551,23.4867304 C24.8339005,23.4867304 22.9870691,23.8391324 21.3165203,24.6312402 C19.6453352,25.423348 18.2388922,26.5684951 17.2715649,28.0654069 L17.1837418,28.0654069 L17.1837418,8.51761275 L8.91754836,8.51761275 L8.91754836,55.5374657 C8.91754836,55.5374657 16.4798839,56.418152 16.7439897,51.5750147 L16.7439897,50.9587892 L16.7439897,50.7822696 L16.8318129,51.1346716 C17.0074591,51.4870735 17.2715649,51.9274167 17.711317,52.5436422 C18.3267154,53.2478088 19.2940426,53.9519755 20.7889451,54.6567794 C22.3716707,55.3609461 24.3063253,55.6254069 26.7685551,55.6254069 C29.4948906,55.6254069 31.7808377,54.9206029 33.7154923,53.4243284 C35.6501469,51.8394755 37.1450493,49.9015833 38.1123766,47.4366814 C39.0797039,44.883201 39.6072791,42.2411422 39.6072791,39.5997206 C39.6072791,36.8703578 39.0797039,34.3168775 38.1123766,31.7633971" id="Fill-16" fill="#EC1D24"></path>
                <path d="M52.5485271,31.7634608 C49.8788311,24.9594902 42.3839539,21.486451 35.7526708,24.6313039 C35.4541994,24.7727745 35.1640013,24.9263529 34.8827127,25.0907647 C35.8742231,25.9778235 36.7696373,27.0069902 37.5492267,28.1521373 C38.3689093,27.8634608 39.2566866,27.7258137 40.2271959,27.7258137 C46.5994644,27.7258137 48.4914801,34.4609608 48.4914801,39.6093431 C48.4914801,44.8106176 46.4709116,51.3858137 40.2271959,51.3858137 C39.1714091,51.3858137 38.2142642,51.2233137 37.3353964,50.8983137 C36.4469827,52.1466961 35.4172883,53.2491471 34.2755875,54.1699804 C34.5657857,54.3318431 34.8814399,54.4943431 35.2250956,54.6568431 C36.8084576,55.3610098 38.7424758,55.6254706 41.2047056,55.6254706 C43.9310411,55.6254706 46.2169882,54.9206667 48.1516428,53.4243922 C50.0862974,51.838902 51.5811998,49.9016471 52.5485271,47.4367451 C53.5158544,44.8826275 54.0434296,42.2412059 54.0434296,39.5997843 C54.0434296,36.8704216 53.5158544,34.3169412 52.5485271,31.7634608" id="Fill-17" fill="#231F20"></path>
            </g>
        </g>
    </g>
</svg>