<?xml version="1.0" encoding="UTF-8"?>
<svg width="24px" height="24px" viewBox="0 0 24 24" version="1.1" xmlns="http://www.w3.org/2000/svg" xmlns:xlink="http://www.w3.org/1999/xlink">
    <!-- Generator: Sketch 49 (51002) - http://www.bohemiancoding.com/sketch -->
    <title>close</title>
    <desc>Created with Sketch.</desc>
    <defs></defs>
    <g id="Thank-you-page" stroke="none" stroke-width="1" fill="none" fill-rule="evenodd">
        <g id="Thank-you-Page-Icons_web" transform="translate(-266.000000, -258.000000)">
            <g id="close" transform="translate(266.000000, 258.000000)">
                <path d="M11.9592187,22.6523438 C6.07921875,22.6523438 1.3125,17.885625 1.3125,12.0060937 C1.3125,6.1265625 6.07921875,1.359375 11.9592187,1.359375 C17.8392187,1.359375 22.6054687,6.12609375 22.6054687,12.0060937 C22.6054687,17.8860938 17.83875,22.6523438 11.9592187,22.6523438 Z" id="Shape" fill="#4A4A4A"></path>
                <path d="M20.4154688,3.549375 C17.3943416,0.528247725 12.9909528,-0.651636832 8.86401631,0.454172434 C4.7370798,1.5599817 1.51357545,4.78348605 0.407766184,8.91042256 C-0.698043082,13.0373591 0.481841475,17.4407479 3.50296875,20.461875 C6.52409587,23.4830023 10.9274847,24.6628868 15.0544212,23.5570776 C19.1813577,22.4512683 22.404862,19.2277639 23.5106713,15.1008274 C24.6164806,10.9738909 23.436596,6.57050212 20.4154688,3.549375 Z" id="Path" fill="#4A4A4A"></path>
                <path d="M16.5,15.763125 L12.984375,12.2475 C12.8928792,12.1559766 12.8928792,12.0076172 12.984375,11.9160937 L16.5,8.40046875 C16.6059119,8.29492395 16.6654436,8.15155396 16.6654436,8.00203125 C16.6654436,7.85250854 16.6059119,7.70913855 16.5,7.60359375 C16.3944552,7.49768183 16.2510852,7.43815018 16.1015625,7.43815018 C15.9520398,7.43815018 15.8086698,7.49768183 15.703125,7.60359375 L12.1875,11.1192187 C12.0959766,11.2107145 11.9476172,11.2107145 11.8560938,11.1192187 L8.34046875,7.60359375 C8.23492395,7.49768183 8.09155396,7.43815018 7.94203125,7.43815018 C7.79250854,7.43815018 7.64913855,7.49768183 7.54359375,7.60359375 C7.43768183,7.70913855 7.37815018,7.85250854 7.37815018,8.00203125 C7.37815018,8.15155396 7.43768183,8.29492395 7.54359375,8.40046875 L11.0592188,11.9160937 C11.1507145,12.0076172 11.1507145,12.1559766 11.0592188,12.2475 L7.54359375,15.763125 C7.43768183,15.8686698 7.37815018,16.0120398 7.37815018,16.1615625 C7.37815018,16.3110852 7.43768183,16.4544552 7.54359375,16.56 C7.64913855,16.6659119 7.79250854,16.7254436 7.94203125,16.7254436 C8.09155396,16.7254436 8.23492395,16.6659119 8.34046875,16.56 L11.8560938,13.044375 C11.9476172,12.9528792 12.0959766,12.9528792 12.1875,13.044375 L15.703125,16.56 C15.8086698,16.6659119 15.9520398,16.7254436 16.1015625,16.7254436 C16.2510852,16.7254436 16.3944552,16.6659119 16.5,16.56 C16.6059119,16.4544552 16.6654436,16.3110852 16.6654436,16.1615625 C16.6654436,16.0120398 16.6059119,15.8686698 16.5,15.763125 Z" id="Shape" fill="#FFFFFF" fill-rule="nonzero"></path>
            </g>
        </g>
    </g>
</svg>