<?xml version="1.0" encoding="UTF-8"?>
<svg width="26px" height="14px" viewBox="0 0 26 14" version="1.1" xmlns="http://www.w3.org/2000/svg" xmlns:xlink="http://www.w3.org/1999/xlink">
    <!-- Generator: Sketch 49 (51002) - http://www.bohemiancoding.com/sketch -->
    <title>EXP del</title>
    <desc>Created with Sketch.</desc>
    <defs></defs>
    <g id="Thank-you-page" stroke="none" stroke-width="1" fill="none" fill-rule="evenodd">
        <g id="Thank-you-Page-Icons_web" transform="translate(-8.000000, -239.000000)">
            <g id="EXP-del" transform="translate(8.000000, 239.000000)">
                <path d="M8.14172028,6.37012332 C6.18908625,6.37012332 4.60614918,7.97078145 4.60614918,9.94585873 C4.60614918,11.9208895 6.18908625,13.5215941 8.14172028,13.5215941 C10.0943543,13.5215941 11.6772914,11.9206103 11.6772914,9.94585873 C11.6772914,7.97106066 10.0943543,6.37012332 8.14172028,6.37012332" id="Path" fill="#666666"></path>
                <path d="M8.14172028,12.5775888 C6.70470396,12.5775888 5.53952914,11.3991876 5.53952914,9.94585873 C5.53952914,8.4924833 6.70470396,7.3140821 8.14172028,7.3140821 C9.5787366,7.3140821 10.7439114,8.4924833 10.7439114,9.94585873 C10.7439114,11.3991876 9.5787366,12.5775888 8.14172028,12.5775888" id="Path" fill="#FFFFFF"></path>
                <path d="M18.4066434,7.01688283 C18.4066434,6.74460761 18.2347086,6.5236603 18.0229604,6.5236603 L12.1906993,6.5236603 C11.9789044,6.5236603 11.8070163,6.74460761 11.8070163,7.01688283 C11.8070163,7.28911152 11.9789044,7.51010537 12.1906993,7.51010537 L16.961655,7.51010537 C17.117972,7.51010537 17.23,7.6606455 17.1848252,7.80997574 L16.2812354,10.7970457 C16.2514918,10.8952807 16.1608625,10.962477 16.0580653,10.962477 L13.8311189,10.962477 C13.7864103,10.962477 13.7425408,10.9496334 13.7049184,10.9254353 L13.0762005,10.5213269 L13.0754545,10.5230487 C13.0237995,10.4897763 12.9662704,10.4692544 12.9044988,10.4692544 C12.6927506,10.4692544 12.5208159,10.6902483 12.5208159,10.962477 C12.5208159,11.1553638 12.6079021,11.3207951 12.7335431,11.4019053 L12.7327972,11.4036736 L13.5001632,11.8968496 L13.5009091,11.8951278 C13.5525175,11.9284467 13.6100466,11.9488755 13.6718182,11.9488755 L16.6801166,11.9488755 C16.8429604,11.9488755 16.9810956,11.8182058 17.0367133,11.6342536 L17.0375058,11.634719 L18.3803497,7.19590228 L18.3795571,7.1956696 C18.3964336,7.13968822 18.4066434,7.07975137 18.4066434,7.01688283" id="Fill-9" fill="#666666"></path>
                <path d="M21.0873427,2.0784218 C20.2529837,2.19955194 19.6553147,2.84438491 19.6553147,3.29000233 C19.6553147,3.73557321 20.2529837,4.38049925 21.0873427,4.50130364 C21.0997902,4.50302543 21.3621678,4.50130364 21.3621678,4.26085824 L21.3621678,2.31886721 C21.3621678,2.0784218 21.0997902,2.07697923 21.0873427,2.0784218" id="Fill-17" fill="#666666"></path>
                <path d="M21.894634,6.37012332 C19.942,6.37012332 18.3590629,7.97078145 18.3590629,9.94585873 C18.3590629,11.9208895 19.942,13.5215941 21.894634,13.5215941 C23.8472681,13.5215941 25.4302051,11.9206103 25.4302051,9.94585873 C25.4302051,7.97106066 23.8472681,6.37012332 21.894634,6.37012332" id="Path" fill="#666666"></path>
                <path d="M21.894634,12.5775888 C20.4576177,12.5775888 19.2924429,11.3991876 19.2924429,9.94585873 C19.2924429,8.4924833 20.4576177,7.3140821 21.894634,7.3140821 C23.3316503,7.3140821 24.4968252,8.4924833 24.4968252,9.94585873 C24.4968252,11.3991876 23.3316503,12.5775888 21.894634,12.5775888" id="Path" fill="#FFFFFF"></path>
                <path d="M21.615049,10.8653216 L16.9739767,1.43173675 C16.895655,1.27240153 16.733324,1.17151404 16.5555618,1.17151404 L16.1688951,1.17151404 C15.911366,1.17151404 15.7026946,0.963177663 15.7026946,0.706165863 L15.7026946,0.520026591 C15.7026946,0.263014791 15.911366,0.0546784112 16.1688951,0.0546784112 L17.2526247,0.0546784112 C17.4303869,0.0546784112 17.5927179,0.155565897 17.6710396,0.314901114 L22.6193846,10.3730763 C22.7329044,10.6037494 22.6375198,10.882586 22.4064242,10.9958983 L22.2390117,11.0778926 C22.0079161,11.1912049 21.7285688,11.0959947 21.615049,10.8653216" id="Fill-33" fill="#666666"></path>
                <path d="M14.8868298,2.10713379 C13.3051981,2.10713379 12.066317,3.08152634 12.066317,4.32530896 C12.066317,4.51107595 12.0953147,4.6860934 12.1496737,4.84775536 L8.56459207,4.84775536 C8.48962704,4.84775536 8.41601399,4.8270939 8.35074592,4.78781851 L5.85480186,3.6591165 C5.64529138,3.53291408 5.37969697,3.61211634 5.26160839,3.83599535 L5.17610723,3.99812265 C5.05801865,4.22200166 5.13214452,4.50581752 5.34165501,4.63201994 L8.07652681,5.90465415 C8.14174825,5.94392953 8.21540793,5.96459099 8.29032634,5.96459099 L14.1483217,5.96459099 C14.1714918,5.96459099 14.1941026,5.96207811 14.2162937,5.95835533 C14.3151282,5.96040286 14.415035,5.96096128 14.5155944,5.96096128 C14.575641,5.96096128 14.82338,5.96017018 14.8868298,5.96017018 C14.9502797,5.96017018 15.1979254,5.96096128 15.2580186,5.96096128 C15.7288345,5.96096128 16.1847319,5.95035134 16.5869697,5.82205484 C17.2885082,5.59831544 17.7073427,5.03878079 17.7073427,4.32530896 C17.7073427,3.08152634 16.4684149,2.10713379 14.8868298,2.10713379" id="Path" fill="#666666"></path>
                <path d="M14.8868298,4.93640419 C14.7194172,4.93640419 14.5575991,4.93770716 14.4038462,4.93686954 C13.8844988,4.940825 13.501655,4.84775536 13.501655,4.84775536 C13.2318182,4.75468572 13.091958,4.61382483 13.091958,4.32530896 C13.091958,3.66567791 13.8955012,3.13094632 14.8868298,3.13094632 C15.8781119,3.13094632 16.6817016,3.66567791 16.6817016,4.32530896 C16.6817016,4.98498654 15.8781119,4.93640419 14.8868298,4.93640419" id="Path" fill="#FFFFFF"></path>
                <path d="M4.09169231,4.70164068 L0.190200466,3.77322453 C-0.079962704,3.70891341 -0.0324568765,3.31881203 0.245678322,3.31881203 L4.20255478,3.31881203 C4.46208858,3.31881203 4.67253147,3.52519395 4.67253147,3.77973941 L4.67253147,4.25374306 C4.67253147,4.55226392 4.38754312,4.77204786 4.09169231,4.70164068" id="Fill-37" fill="#666666"></path>
                <path d="M4.8842331,7.02838159 L0.190200466,6.09996543 C-0.079962704,6.03565431 -0.0324568765,5.64555293 0.245678322,5.64555293 L4.99509557,5.64555293 C5.25462937,5.64555293 5.46507226,5.85193485 5.46507226,6.10648031 L5.46507226,6.58048396 C5.46507226,6.87900482 5.18008392,7.09878877 4.8842331,7.02838159" id="Fill-39" fill="#666666"></path>
            </g>
        </g>
    </g>
</svg>