<?xml version="1.0" encoding="UTF-8"?>
<svg width="34px" height="30px" viewBox="0 0 34 30" version="1.1" xmlns="http://www.w3.org/2000/svg" xmlns:xlink="http://www.w3.org/1999/xlink">
    <!-- Generator: Sketch 49 (51002) - http://www.bohemiancoding.com/sketch -->
    <title>free delivery</title>
    <desc>Created with Sketch.</desc>
    <defs></defs>
    <g id="Thank-you-page" stroke="none" stroke-width="1" fill="none" fill-rule="evenodd">
        <g id="Thank-you-Page-Icons_web" transform="translate(-17.000000, -104.000000)">
            <g id="free-delivery" transform="translate(17.000000, 104.000000)">
                <path d="M28.0414067,5.93351333 L23.0356733,5.93351333 C22.6674733,5.93351333 22.3690067,5.63504667 22.3690067,5.26684667 L22.3690067,0.733313333 C22.3690067,0.365113333 22.07054,0.0666466667 21.70234,0.0666466667 L0.666673333,0.0666466667 C0.298473333,0.0666466667 6.66666667e-06,0.365113333 6.66666667e-06,0.733313333 L6.66666667e-06,26.44638 C6.66666667e-06,26.62678 0.146273333,26.7730467 0.326673333,26.7730467 L3.44094,26.7730467 C3.62334,26.7730467 3.76774,26.6236467 3.76754,26.4412467 L3.76754,26.4376467 C3.76754,26.1428467 3.79694,25.85498 3.85254,25.57658 C3.89420667,25.3682467 3.73914,25.1730467 3.52674,25.1730467 L1.93334,25.1730467 C1.74927333,25.1730467 1.60000667,25.02378 1.60000667,24.8397133 L1.60000667,1.99998 C1.60000667,1.81591333 1.74927333,1.66664667 1.93334,1.66664667 L20.4356733,1.66664667 C20.61974,1.66664667 20.7690067,1.81591333 20.7690067,1.99998 L20.7690067,24.8397133 C20.7690067,25.02378 20.61974,25.1730467 20.4356733,25.1730467 L12.7888067,25.1730467 C12.5764067,25.1730467 12.4214067,25.3682467 12.4630067,25.57658 C12.5186733,25.85498 12.5480733,26.1428467 12.5480733,26.4376467 L12.5480733,26.4412467 C12.5478733,26.6236467 12.6922067,26.7730467 12.8746067,26.7730467 L22.3320067,26.7730467 C22.51454,26.7730467 22.66374,26.6237133 22.6636733,26.4412467 L22.6636733,26.4376467 C22.6636733,26.13998 22.6936733,25.84938 22.75034,25.5684467 C22.79154,25.3644467 22.63934,25.1730467 22.4312067,25.1730467 L22.3690067,25.1730467 L22.3690067,7.86684667 C22.3690067,7.68278 22.5182067,7.53351333 22.70234,7.53351333 L27.2578733,7.53351333 C27.3842067,7.53351333 27.49974,7.60498 27.55614,7.71798 L31.57714,15.7751133 C31.6002067,15.8213133 31.6122067,15.8723133 31.6122067,15.9239133 L31.6122067,25.1730467 C31.4372733,25.1730467 31.3072067,25.3343133 31.3442733,25.5052467 C31.40954,25.8057133 31.4442067,26.1176467 31.4442067,26.4376467 C31.4442067,26.45658 31.4440733,26.47538 31.4438067,26.4942467 C31.44134,26.6475133 31.56454,26.7730467 31.7178733,26.7730467 L32.54554,26.7730467 C32.91374,26.7730467 33.2122067,26.47458 33.2122067,26.10638 L33.2122067,15.6254467 C33.2122067,15.5221133 33.1882067,15.4202467 33.1420733,15.32778 L28.63794,6.30251333 C28.5250733,6.07638 28.29414,5.93351333 28.0414067,5.93351333" id="Fill-1" fill="#606060"></path>
                <path d="M8.15778,22.9119333 C6.21371333,22.9119333 4.63211333,24.4936 4.63211333,26.4376667 C4.63211333,28.3817333 6.21371333,29.9633333 8.15778,29.9633333 C10.1018467,29.9633333 11.6834467,28.3817333 11.6834467,26.4376667 C11.6834467,24.4936 10.1018467,22.9119333 8.15778,22.9119333" id="Path" fill="#84C225"></path>
                <path d="M8.15778,28.3633333 C7.09424667,28.3633333 6.23211333,27.5012 6.23211333,26.4376667 C6.23211333,25.3741333 7.09424667,24.5119333 8.15778,24.5119333 C9.22131333,24.5119333 10.0834467,25.3741333 10.0834467,26.4376667 C10.0834467,27.5012 9.22131333,28.3633333 8.15778,28.3633333" id="Path" fill="#FFFFFF"></path>
                <path d="M27.0539733,22.9119333 C25.1099067,22.9119333 23.5283067,24.4936 23.5283067,26.4376667 C23.5283067,28.3817333 25.1099067,29.9633333 27.0539733,29.9633333 C28.99804,29.9633333 30.57964,28.3817333 30.57964,26.4376667 C30.57964,24.4936 28.99804,22.9119333 27.0539733,22.9119333" id="Path" fill="#84C225"></path>
                <path d="M27.0539733,28.3633333 C25.99044,28.3633333 25.1283067,27.5012 25.1283067,26.4376667 C25.1283067,25.3741333 25.99044,24.5119333 27.0539733,24.5119333 C28.1175067,24.5119333 28.97964,25.3741333 28.97964,26.4376667 C28.97964,27.5012 28.1175067,28.3633333 27.0539733,28.3633333" id="Path" fill="#FFFFFF"></path>
                <polygon id="Fill-8" fill="#84C225" points="3.14056 9.49956667 6.48136 9.49956667 6.48136 10.3631 4.14562667 10.3631 4.14562667 11.3894333 6.43182667 11.3894333 6.43182667 12.2529667 4.14562667 12.2529667 4.14562667 14.2206333 3.14056 14.2206333"></polygon>
                <path d="M8.92323333,12.5289733 L8.18716667,12.5289733 L8.18716667,14.22064 L7.18203333,14.22064 L7.18203333,9.49957333 L9.39043333,9.49957333 C10.3742333,9.49957333 10.9759,10.14364 10.9759,11.0213733 C10.9759,11.8565733 10.4521,12.3025067 9.9425,12.42284 L11.0042333,14.22064 L9.8505,14.22064 L8.92323333,12.5289733 Z" id="Path" fill="#84C225"></path>
                <path d="M9.24176667,10.3631067 L8.18716667,10.3631067 L8.18716667,11.66544 L9.24176667,11.66544 C9.64523333,11.66544 9.94956667,11.41064 9.94956667,11.0143067 C9.94956667,10.6179067 9.64523333,10.3631067 9.24176667,10.3631067 Z" id="Path" fill="#FFFFFF"></path>
                <polygon id="Fill-12" fill="#84C225" points="11.7331067 9.49956667 15.0739733 9.49956667 15.0739733 10.3631 12.7381733 10.3631 12.7381733 11.3894333 15.02444 11.3894333 15.02444 12.2529667 12.7381733 12.2529667 12.7381733 13.3500333 15.0739733 13.3500333 15.0739733 14.2206333 11.7331067 14.2206333"></polygon>
                <polygon id="Fill-14" fill="#84C225" points="15.8595067 9.49956667 19.2003067 9.49956667 19.2003067 10.3631 16.8645733 10.3631 16.8645733 11.3894333 19.1507733 11.3894333 19.1507733 12.2529667 16.8645733 12.2529667 16.8645733 13.3500333 19.2003067 13.3500333 19.2003067 14.2206333 15.8595067 14.2206333"></polygon>
                <path d="M26.8667333,9.03924667 L24.0152,9.03924667 C23.647,9.03924667 23.3485333,9.33771333 23.3485333,9.70591333 L23.3485333,13.77598 C23.3485333,14.14418 23.647,14.4426467 24.0152,14.4426467 L28.8599333,14.4426467 C29.3530667,14.4426467 29.6755333,13.9256467 29.4586667,13.48278 L27.4654667,9.41271333 C27.3536,9.18411333 27.1212667,9.03924667 26.8667333,9.03924667" id="Path" fill="#606060"></path>
                <path d="M25.2222667,10.5544467 L26.0782667,10.5544467 C26.2153333,10.5544467 26.3404,10.6324467 26.4006667,10.75558 L27.2111333,12.4105133 C27.3279333,12.6490467 27.1543333,12.9274467 26.8888,12.9274467 L25.2222667,12.9274467 C25.024,12.9274467 24.8632667,12.7667133 24.8632667,12.5684467 L24.8632667,10.9134467 C24.8632667,10.71518 25.024,10.5544467 25.2222667,10.5544467" id="Path" fill="#FFFFFF"></path>
            </g>
        </g>
    </g>
</svg>