<?xml version="1.0" encoding="UTF-8"?>
<svg width="30px" height="30px" viewBox="0 0 30 30" version="1.1" xmlns="http://www.w3.org/2000/svg" xmlns:xlink="http://www.w3.org/1999/xlink">
    <!-- Generator: Sketch 49 (51002) - http://www.bohemiancoding.com/sketch -->
    <title>Help</title>
    <desc>Created with Sketch.</desc>
    <defs></defs>
    <g id="Thank-you-page" stroke="none" stroke-width="1" fill="none" fill-rule="evenodd">
        <g id="Thank-you-Page-Icons_web" transform="translate(-342.000000, -52.000000)">
            <g id="Help" transform="translate(342.000000, 52.000000)">
                <path d="M25.5689824,4.38692759 C22.7400587,1.55800391 18.978728,0 14.9779843,0 C10.977182,0 7.21590998,1.55800391 4.38692759,4.38692759 C1.55794521,7.21590998 0,10.977182 0,14.9779843 C0,18.978728 1.55794521,22.74 4.38692759,25.5690411 C7.21590998,28.3979648 10.977182,29.95591 14.9779843,29.95591 C18.978728,29.95591 22.7400587,28.3979648 25.5689824,25.5690411 C28.3979648,22.74 29.9559687,18.978728 29.9559687,14.9779843 C29.9559687,10.977182 28.3979648,7.21590998 25.5689824,4.38692759 Z" id="Path" fill="#979797"></path>
                <path d="M14.9779843,28.3120744 C7.6137182,28.3120744 1.64383562,22.3422505 1.64383562,14.9779843 C1.64383562,7.6137182 7.6137182,1.64383562 14.9779843,1.64383562 C22.3421918,1.64383562 28.3121331,7.6137182 28.3121331,14.9779843 C28.3121331,22.3422505 22.3421918,28.3120744 14.9779843,28.3120744 Z" id="Path" fill="#FFFFFF"></path>
                <path d="M14.4741736,20.253229 L15.2530582,20.253229 C15.5773635,20.253229 15.8401423,20.5160078 15.8401423,20.8403131 L15.8401423,21.7074951 C15.8401423,22.0317417 15.5773635,22.2945793 15.2530582,22.2945793 L14.4741736,22.2945793 C14.1499271,22.2945793 13.8870895,22.0317417 13.8870895,21.7074951 L13.8870895,20.8403131 C13.8870895,20.5160078 14.1499271,20.253229 14.4741736,20.253229 Z M11.7524515,8.98138943 C12.5606316,8.12107632 13.6700445,7.69080235 15.0809251,7.69080235 C16.3857196,7.69080235 17.4306707,8.05878669 18.2154848,8.7948728 C19.0003576,9.5309589 19.3929408,10.4716438 19.3929408,11.6165166 C19.3929408,12.3100978 19.2506316,12.8727593 18.9660132,13.3046184 C18.6813948,13.7364188 18.098068,14.3711742 17.2163263,15.2086497 C16.5748194,15.8171037 16.1572852,16.3323288 15.9637822,16.7543836 C15.8156022,17.0771037 15.7241932,17.517593 15.6893791,18.0757339 C15.6701815,18.3841292 15.4128038,18.6240117 15.1037627,18.6240117 L14.5305337,18.6240117 C14.1911404,18.6240117 13.9238997,18.3368102 13.944565,17.9980626 C13.9843693,17.346047 14.0895161,16.8006458 14.2600053,16.3618004 C14.4823928,15.7893346 14.9774222,15.1335029 15.7449173,14.393953 L16.5458762,13.6186497 C16.7859936,13.3962622 16.9809055,13.163953 17.1304359,12.9218395 C17.4021971,12.4966145 17.5379897,12.0550098 17.5379897,11.596908 C17.5379897,10.9557534 17.3424907,10.3995499 16.9517862,9.92847358 C16.5610817,9.45733855 15.914702,9.2218591 15.0127646,9.2218591 C13.897246,9.2218591 13.1257,9.62759295 12.6981854,10.4387671 C12.5104946,10.791135 12.3859153,11.2650294 12.3243302,11.8604501 C12.2932147,12.1615068 12.0425885,12.3918787 11.7399466,12.3918787 L11.1549173,12.3918787 C10.8080092,12.3918787 10.537246,12.0925832 10.5702402,11.7472603 C10.6770895,10.6288063 11.0710817,9.70684932 11.7524515,8.98138943 Z" id="Fill-3" fill="#84C225"></path>
            </g>
        </g>
    </g>
</svg>