<?xml version="1.0" encoding="UTF-8"?>
<svg width="12px" height="12px" viewBox="0 0 12 12" version="1.1" xmlns="http://www.w3.org/2000/svg" xmlns:xlink="http://www.w3.org/1999/xlink">
    <!-- Generator: Sketch 49 (51002) - http://www.bohemiancoding.com/sketch -->
    <title>info</title>
    <desc>Created with Sketch.</desc>
    <defs></defs>
    <g id="Thank-you-page" stroke="none" stroke-width="1" fill="none" fill-rule="evenodd">
        <g id="Thank-you-Page-Icons_web" transform="translate(-237.000000, -130.000000)">
            <g id="info" transform="translate(237.000000, 130.000000)">
                <path d="M10.2426474,1.75735723 C9.10937572,0.624131792 7.6026474,-6.93641618e-06 6.00001156,-6.93641618e-06 C4.3973526,-6.93641618e-06 2.89062428,0.624131792 1.7573526,1.75735723 C0.624104046,2.89060578 1.15606936e-05,4.3973341 1.15606936e-05,5.99999306 C1.15606936e-05,7.60265202 0.624104046,9.10940347 1.7573526,10.242652 C2.89062428,11.3758775 4.3973526,11.9999931 6.00001156,11.9999931 C7.6026474,11.9999931 9.10937572,11.3758775 10.2426474,10.242652 C11.375896,9.10940347 12.0000116,7.60265202 12.0000116,5.99999306 C12.0000116,4.3973341 11.375896,2.89060578 10.2426474,1.75735723" id="Path" fill="#DA251D"></path>
                <path d="M6.00001156,11.341496 C3.04997688,11.341496 0.658485549,8.95002775 0.658485549,5.99999306 C0.658485549,3.0499815 3.04997688,0.658513295 6.00001156,0.658513295 C8.95002312,0.658513295 11.3415145,3.0499815 11.3415145,5.99999306 C11.3415145,8.95002775 8.95002312,11.341496 6.00001156,11.341496" id="Path" fill="#FFFFFF"></path>
                <path d="M5.94968324,9.08670751 C5.79550983,9.08670751 5.67053873,8.97588671 5.67053873,8.83916994 L5.67053873,4.40837225 C5.67053873,4.27165549 5.79550983,4.16083468 5.94968324,4.16083468 L6.06133642,4.16083468 C6.21550983,4.16083468 6.34048092,4.27165549 6.34048092,4.40837225 L6.34048092,8.83916994 C6.34048092,8.97588671 6.21550983,9.08670751 6.06133642,9.08670751 L5.94968324,9.08670751 Z" id="Fill-4" fill="#DA251D"></path>
                <path d="M6.16204162,2.89017572 L5.83237688,2.89017572 C5.70467746,2.89017572 5.60116301,2.99369017 5.60116301,3.1213896 L5.60116301,3.5170659 C5.60116301,3.64476532 5.70467746,3.74827977 5.83237688,3.74827977 L6.16204162,3.74827977 C6.28971792,3.74827977 6.39325549,3.64476532 6.39325549,3.5170659 L6.39325549,3.1213896 C6.39325549,2.99369017 6.28971792,2.89017572 6.16204162,2.89017572" id="Fill-6" fill="#DA251D"></path>
            </g>
        </g>
    </g>
</svg>