<?xml version="1.0" encoding="UTF-8"?>
<svg width="13px" height="16px" viewBox="0 0 13 16" version="1.1" xmlns="http://www.w3.org/2000/svg" xmlns:xlink="http://www.w3.org/1999/xlink">
    <!-- Generator: Sketch 49 (51002) - http://www.bohemiancoding.com/sketch -->
    <title>location</title>
    <desc>Created with Sketch.</desc>
    <defs></defs>
    <g id="Thank-you-page" stroke="none" stroke-width="1" fill="none" fill-rule="evenodd">
        <g id="Thank-you-Page-Icons_web" transform="translate(-336.000000, -262.000000)">
            <g id="location" transform="translate(336.000000, 262.000000)">
                <path d="M12.3514491,6.16397171 C12.323271,4.51426873 11.6751745,2.96822988 10.5261339,1.81104891 C9.34265339,0.61945935 7.75844885,-0.0258506299 6.07399287,0.000793336545 C4.48036432,0.0258405436 2.9524847,0.670179944 1.81909858,1.792921 C0.638748949,2.96325175 -0.00621663165,4.52275347 4.51701047e-05,6.17962622 C0.00630697186,7.94044487 0.970624442,10.0788189 2.87424348,12.5346975 C4.24870897,14.3108889 5.60435774,15.5882651 5.66074526,15.6418035 L5.95188774,15.9151625 C6.06776238,16.025652 6.25245422,16.0285011 6.37142845,15.9220505 L6.67199494,15.6584286 C6.73148206,15.6070818 8.11220934,14.3860305 9.50232933,12.6349176 C11.4247025,10.2144182 12.3827581,8.03747149 12.3514491,6.16397171 L12.3514491,6.16397171 Z" id="Path" fill="#666666"></path>
                <path d="M6.39650697,14.892579 C6.27127094,15.0068881 6.08028598,15.004039 5.96128044,14.8863485 C4.95939216,13.8969838 0.763984984,9.55536354 0.751461381,6.17680841 C0.738937777,3.18113114 3.18104046,0.752522637 6.17421301,0.752522637 C9.17045384,0.752522637 11.5499385,3.18147554 11.6000329,6.17680841 C11.65952,9.77014334 7.41714935,13.9405033 6.39650697,14.892579 Z" id="Location-Copy" fill="#FFFFFF"></path>
                <path d="M6.27437053,2.73466467 C4.51480423,2.73466467 3.08398253,4.16551768 3.08398253,5.92442649 C3.08398253,7.68339791 4.51480423,9.1145327 6.27437053,9.1145327 C8.03393682,9.1145327 9.46478983,7.68339791 9.46478983,5.92442649 C9.46478983,4.16551768 8.03393682,2.73466467 6.27437053,2.73466467 L6.27437053,2.73466467 Z" id="Path" fill="#666666"></path>
                <path d="M6.27437053,8.36186413 C4.92808315,8.36186413 3.83539874,7.27074517 3.83539874,5.92442649 C3.83539874,4.57848351 4.92808315,3.48733324 6.27437053,3.48733324 C7.6206579,3.48733324 8.71024272,4.57848351 8.71024272,5.92442649 C8.71024272,7.27074517 7.6206579,8.36186413 6.27437053,8.36186413 Z" id="Path" fill="#FFFFFF"></path>
            </g>
        </g>
    </g>
</svg>