<?xml version="1.0" encoding="UTF-8"?>
<svg width="30px" height="30px" viewBox="0 0 30 30" version="1.1" xmlns="http://www.w3.org/2000/svg" xmlns:xlink="http://www.w3.org/1999/xlink">
    <!-- Generator: Sketch 49 (51002) - http://www.bohemiancoding.com/sketch -->
    <title>ontime</title>
    <desc>Created with Sketch.</desc>
    <defs></defs>
    <g id="Thank-you-page" stroke="none" stroke-width="1" fill="none" fill-rule="evenodd">
        <g id="Thank-you-Page-Icons_web" transform="translate(-19.000000, -62.000000)">
            <g id="ontime" transform="translate(19.000000, 62.000000)">
                <path d="M21.6081198,13.5634611 C17.089018,13.5634611 13.4124311,17.2400479 13.4124311,21.7590898 C13.4124311,26.2782515 17.089018,29.9547784 21.6081198,29.9547784 C26.1272216,29.9547784 29.8037485,26.2782515 29.8037485,21.7590898 C29.8037485,17.2400479 26.1272216,13.5634611 21.6081198,13.5634611" id="Path" fill="#84C225"></path>
                <path d="M21.6081198,28.5176527 C17.875485,28.5176527 14.8495569,25.4917246 14.8495569,21.7590898 C14.8495569,18.0264551 17.875485,15.0005868 21.6081198,15.0005868 C25.3407545,15.0005868 28.3666228,18.0264551 28.3666228,21.7590898 C28.3666228,25.4917246 25.3407545,28.5176527 21.6081198,28.5176527" id="Path" fill="#FFFFFF"></path>
                <path d="M13.9769102,27.0790898 C7.01828743,26.9283114 1.42499401,21.2349581 1.4371497,14.2372934 C1.44948503,7.14699401 7.16972455,1.43711377 14.2600838,1.43717365 C21.3419401,1.43717365 27.0828982,7.17819162 27.0828982,14.2600479 C27.0828982,14.2607665 27.0828982,14.2614251 27.0828982,14.2621437 C27.0828383,14.3871138 27.1370299,14.5066347 27.2348144,14.584479 C27.4354731,14.7441198 27.6292455,14.9119641 27.8155928,15.0875329 C28.072479,15.3294491 28.4960719,15.1612455 28.5095449,14.8086707 C28.516491,14.6263952 28.520024,14.4434611 28.520024,14.2600479 C28.520024,10.4508862 27.0366108,6.86968862 24.3429581,4.17627545 C21.6653533,1.49897006 18.046491,-1.19760479e-05 14.2599641,4.79041916e-05 C10.450982,4.79041916e-05 6.87002395,1.48334132 4.17667066,4.17669461 C1.48325749,6.87010778 -3.59281437e-05,10.4511257 2.39520958e-05,14.2602275 C2.39520958e-05,18.0468743 1.49912575,21.6658563 4.17667066,24.3434012 C6.87002395,27.0367545 10.4510419,28.5200479 14.260024,28.5200479 C14.3357126,28.5200479 14.4112814,28.5194491 14.4867904,28.5182515 C14.842,28.512503 15.0240359,28.0948383 14.7861916,27.8308862 C14.6144551,27.6403473 14.4506826,27.4424431 14.2951737,27.2378922 C14.2196647,27.1386108 14.1016407,27.0817844 13.9769102,27.0790898" id="Fill-3" fill="#606060"></path>
                <path d="M14.3945988,5.90613772 L14.1550778,5.90613772 C13.8243593,5.90613772 13.5562754,5.63805389 13.5562754,5.30733533 L13.5562754,3.32026946 C13.5562754,2.9895509 13.8243593,2.72146707 14.1550778,2.72146707 L14.3945988,2.72146707 C14.7253174,2.72146707 14.9934012,2.9895509 14.9934012,3.32026946 L14.9934012,5.30733533 C14.9934012,5.63805389 14.7253174,5.90613772 14.3945988,5.90613772" id="Fill-5" fill="#606060"></path>
                <path d="M2.51797605,14.4036347 L2.51797605,14.1641138 C2.51797605,13.8333952 2.78605988,13.5653114 3.11677844,13.5653114 L5.10384431,13.5653114 C5.43456287,13.5653114 5.70264671,13.8333952 5.70264671,14.1641138 L5.70264671,14.4036347 C5.70264671,14.7343533 5.43456287,15.0024371 5.10384431,15.0024371 L3.11677844,15.0024371 C2.78605988,15.0024371 2.51797605,14.7343533 2.51797605,14.4036347" id="Fill-7" fill="#606060"></path>
                <path d="M19.5681976,25.0868743 L17.4304731,22.9491497 C17.1966407,22.7153174 17.1966407,22.3360958 17.4304731,22.1022635 L17.5998144,21.9329222 C17.8336467,21.6990898 18.2128084,21.6990898 18.4466407,21.9329222 L19.7799341,23.2661557 C19.8968204,23.3831018 20.0864012,23.3831018 20.2033473,23.2661557 L24.5300539,18.939509 C24.7638862,18.7056766 25.142988,18.7056766 25.3768802,18.939509 L25.5462216,19.1088503 C25.7800539,19.3426826 25.7800539,19.7218443 25.5462216,19.9556766 L20.415024,25.0868743 C20.1811916,25.3207066 19.8020299,25.3207066 19.5681976,25.0868743" id="Fill-9" fill="#84C225"></path>
                <path d="M5.00851497,9.58587425 C5.00851497,9.9827006 4.68677844,10.3044371 4.2899521,10.3044371 C3.89312575,10.3044371 3.57138922,9.9827006 3.57138922,9.58587425 C3.57138922,9.1890479 3.89312575,8.86731138 4.2899521,8.86731138 C4.68677844,8.86731138 5.00851497,9.1890479 5.00851497,9.58587425" id="Fill-11" fill="#606060"></path>
                <path d="M5.18815569,19.2684671 C5.18815569,19.6652934 4.86641916,19.9870299 4.46959281,19.9870299 C4.07276647,19.9870299 3.75102994,19.6652934 3.75102994,19.2684671 C3.75102994,18.8716407 4.07276647,18.5499042 4.46959281,18.5499042 C4.86641916,18.5499042 5.18815569,18.8716407 5.18815569,19.2684671" id="Fill-13" fill="#606060"></path>
                <path d="M24.7996826,9.89805389 C24.7996826,10.2948802 24.4779461,10.6166168 24.0811198,10.6166168 C23.6842934,10.6166168 23.3625569,10.2948802 23.3625569,9.89805389 C23.3625569,9.50122754 23.6842934,9.17949102 24.0811198,9.17949102 C24.4779461,9.17949102 24.7996826,9.50122754 24.7996826,9.89805389" id="Fill-15" fill="#606060"></path>
                <path d="M8.42573653,5.54016168 C8.42573653,5.93698802 8.104,6.25872455 7.70717365,6.25872455 C7.31034731,6.25872455 6.98861078,5.93698802 6.98861078,5.54016168 C6.98861078,5.14333533 7.31034731,4.8215988 7.70717365,4.8215988 C8.104,4.8215988 8.42573653,5.14333533 8.42573653,5.54016168" id="Fill-17" fill="#606060"></path>
                <path d="M9.11155689,23.5208084 C9.11155689,23.9176347 8.78982036,24.2393713 8.39299401,24.2393713 C7.99616766,24.2393713 7.67443114,23.9176347 7.67443114,23.5208084 C7.67443114,23.123982 7.99616766,22.8022455 8.39299401,22.8022455 C8.78982036,22.8022455 9.11155689,23.123982 9.11155689,23.5208084" id="Fill-19" fill="#606060"></path>
                <path d="M21.2264551,5.54016168 C21.2264551,5.93698802 20.9047186,6.25872455 20.5078922,6.25872455 C20.1110659,6.25872455 19.7893293,5.93698802 19.7893293,5.54016168 C19.7893293,5.14333533 20.1110659,4.8215988 20.5078922,4.8215988 C20.9047186,4.8215988 21.2264551,5.14333533 21.2264551,5.54016168" id="Fill-21" fill="#606060"></path>
                <path d="M11.4512096,11.2591916 L13.9707305,13.7787725 C14.0876766,13.8956587 14.2772575,13.8956587 14.3941437,13.7787725 L17.6972575,10.4756587 C17.9310898,10.2418263 18.3102515,10.2418263 18.5440838,10.4756587 L18.7134251,10.6450599 C18.9473174,10.8788922 18.9473174,11.257994 18.7134251,11.4918862 L14.6058802,15.5994311 C14.3720479,15.8332635 13.9928862,15.8332635 13.7590539,15.5994311 L10.4350419,12.2754192 C10.2011497,12.0415269 10.2011497,11.6624251 10.4350419,11.4285928 L10.6043832,11.2591916 C10.8382156,11.0253593 11.2173772,11.0253593 11.4512096,11.2591916" id="Fill-23" fill="#606060"></path>
            </g>
        </g>
    </g>
</svg>