<?xml version="1.0" encoding="UTF-8"?>
<svg width="30px" height="30px" viewBox="0 0 30 30" version="1.1" xmlns="http://www.w3.org/2000/svg" xmlns:xlink="http://www.w3.org/1999/xlink">
    <!-- Generator: Sketch 49 (51002) - http://www.bohemiancoding.com/sketch -->
    <title>PAy</title>
    <desc>Created with Sketch.</desc>
    <defs></defs>
    <g id="Thank-you-page" stroke="none" stroke-width="1" fill="none" fill-rule="evenodd">
        <g id="Thank-you-Page-Icons_web" transform="translate(-242.000000, -52.000000)">
            <g id="PAy" transform="translate(242.000000, 52.000000)">
                <path d="M20.58,1.04223297e-15 C16.7830156,-0.000242680837 13.3597719,2.28681876 11.9065607,5.79470525 C10.4533496,9.30259173 11.2563647,13.3404643 13.9411522,16.0254235 C16.6259398,18.7103827 20.663761,19.5136558 24.1717404,18.0606689 C27.6797198,16.6076819 29.967,13.1845844 29.967,9.3876 C29.967,4.20320599 25.764394,0.000331355874 20.58,1.04223297e-15 Z" id="Path" fill="#84C225"></path>
                <path d="M20.58,17.2392 C17.4042696,17.2394427 14.5411072,15.3266156 13.3256397,12.392693 C12.1101721,9.45877038 12.7817736,6.08155884 15.0272683,3.83589256 C17.2727629,1.59022629 20.6499231,0.918366742 23.5839386,2.13361008 C26.5179541,3.34885341 28.431,6.21186964 28.431,9.3876 C28.431,13.7236846 24.9160846,17.2388686 20.58,17.2392 Z" id="Path" fill="#FFFFFF"></path>
                <rect id="Rectangle-path" fill="#8F8F8F" fill-rule="nonzero" x="12.1188" y="19.6902" width="1.44" height="5.4" rx="0.72"></rect>
                <rect id="Rectangle-path" fill="#8F8F8F" fill-rule="nonzero" x="8.5188" y="19.6902" width="1.44" height="5.4" rx="0.72"></rect>
                <rect id="Rectangle-path" fill="#8F8F8F" fill-rule="nonzero" x="15.7188" y="19.6902" width="1.44" height="5.4" rx="0.72"></rect>
                <path d="M23.7732,19.2762 C23.4192246,19.3884755 23.154238,19.6842585 23.0814,20.0484 L22.209,24.4998 C21.8304,26.8218 20.937,28.6632 17.469,28.5276 L7.929,28.5276 C4.815,28.6056 3.6054,27.4542 3.189,24.4998 L1.5876,16.32 C1.55317944,16.1440617 1.59923461,15.9619491 1.71315542,15.8235255 C1.82707623,15.6851018 1.99692632,15.6048708 2.1762,15.6048 L11.103,15.6048 C11.3183141,15.6047231 11.517079,15.4892805 11.6238379,15.3022973 C11.7305969,15.1153142 11.7289796,14.8854623 11.6196,14.7 L11.6106,14.6856 C11.4196991,14.3640005 11.0737897,14.1664357 10.6998,14.1654 L8.3466,14.1654 C8.25943387,14.1662104 8.17622553,14.1290676 8.11862828,14.0636371 C8.06103102,13.9982066 8.03474113,13.9109595 8.0466,13.8246 C8.19564928,12.7025668 8.71189663,11.6614223 9.5148,10.8636 C9.91489672,10.4574022 10.1366502,9.90852462 10.131,9.3384 L10.131,9.3288 C10.1307501,9.18533266 10.0515131,9.05366171 9.92486509,8.98625834 C9.79821704,8.91885497 9.64474195,8.92667418 9.5256,9.0066 C7.92921121,10.0572692 6.86780101,11.749439 6.6168,13.644 C6.57793197,13.9427855 6.32350294,14.1664058 6.0222,14.1666 L1.2,14.1666 C0.843296095,14.1667854 0.505163592,14.3256517 0.277320909,14.6001065 C0.0494782267,14.8745612 -0.0444552237,15.236153 0.021,15.5868 L1.9668,25.9398 C2.345478,28.2630073 4.3529335,29.9688362 6.7068,29.9676 L18.6954,29.9676 C21.0492665,29.9688362 23.056722,28.2630073 23.4354,25.9398 L24.5604,19.9548 C24.5992494,19.7478322 24.5267533,19.5356472 24.3693823,19.395721 C24.2120114,19.2557948 23.9928039,19.2086117 23.7918,19.2714 L23.7732,19.2762 Z" id="Shape" fill="#8F8F8F"></path>
                <path d="M17.7856346,4.89746331 L23.9978387,4.89746331 L23.9978387,4.91037849 C23.6319067,5.4743444 23.4252658,5.77569571 23.3779098,5.81444146 L21.7183085,5.81444146 C21.946478,6.08135663 22.1014586,6.40638554 22.1832552,6.78953795 L23.9526356,6.78953795 C23.974161,6.79384303 23.9849236,6.80245307 23.9849236,6.81536832 C23.5888559,7.40946981 23.38652,7.7065161 23.3779098,7.7065161 L22.2284584,7.7065161 C22.2026279,8.01217701 22.0562572,8.38025611 21.7893421,8.81076444 C21.4363252,9.24557785 21.0983813,9.52755658 20.7755,9.65670908 C20.1727884,9.94514966 19.5959159,10.0893678 19.0448652,10.0893678 L19.0448652,10.102283 C19.0448652,10.1453338 19.1804733,10.3239921 19.4516935,10.6382632 L22.51905,14.3384637 L22.51905,14.5128187 C22.51905,14.5300391 22.5082875,14.5386491 22.4867621,14.5386491 L21.1371252,14.5386491 C18.7090582,11.7102094 17.495043,10.2895532 17.495043,10.276638 L17.495043,9.41777815 L17.5079581,9.38549019 C17.7232123,9.41562577 17.9750559,9.43069333 18.2634965,9.43069333 C19.6239028,9.43069333 20.469839,8.98942892 20.8013304,8.10688685 C20.8529914,7.97773435 20.8788215,7.84427877 20.8788215,7.7065161 L17.1850785,7.7065161 C17.1678582,7.7065161 17.1592481,7.69790606 17.1592481,7.68068573 C17.5682311,7.08658424 17.7770245,6.78953795 17.7856346,6.78953795 L20.7173817,6.78953795 L20.7173817,6.77662276 C20.5494834,6.43652118 20.2244545,6.17176253 19.7422852,5.98233887 C19.3978785,5.87040671 19.0879172,5.81444146 18.8123919,5.81444146 L17.1721633,5.81444146 L17.1721633,5.7821535 C17.568231,5.19235709 17.7727194,4.89746331 17.7856346,4.89746331 Z" id="`" fill="#84C225"></path>
            </g>
        </g>
    </g>
</svg>