<?xml version="1.0" encoding="UTF-8"?>
<svg width="28px" height="30px" viewBox="0 0 28 30" version="1.1" xmlns="http://www.w3.org/2000/svg" xmlns:xlink="http://www.w3.org/1999/xlink">
    <!-- Generator: Sketch 49 (51002) - http://www.bohemiancoding.com/sketch -->
    <title>quality</title>
    <desc>Created with Sketch.</desc>
    <defs></defs>
    <g id="Thank-you-page" stroke="none" stroke-width="1" fill="none" fill-rule="evenodd">
        <g id="Thank-you-Page-Icons_web" transform="translate(-20.000000, -17.000000)">
            <g id="quality" transform="translate(20.000000, 17.000000)">
                <path d="M23.3204672,12.5503718 L20.568161,6.4362167 C20.5569483,6.40430815 20.5512227,6.37078926 20.5512227,6.33703181 L20.5512227,4.53279722 L20.7701093,4.53279722 C21.0994533,4.53279722 21.3665308,4.26577932 21.3665308,3.93637575 L21.3665308,0.656057654 C21.3665308,0.326654076 21.0994533,0.0596361829 20.7701093,0.0596361829 L13.7542843,0.0596361829 C13.4248807,0.0596361829 13.1578628,0.326654076 13.1578628,0.656057654 L13.1578628,3.93637575 C13.1578628,4.26577932 13.4248807,4.53279722 13.7542843,4.53279722 L13.973171,4.53279722 L13.973171,6.33703181 C13.973171,6.37078926 13.9674453,6.40430815 13.956173,6.4362167 L11.2039264,12.5503718 C11.1814414,12.6140696 11.1699901,12.6811074 11.1699901,12.7486819 L11.1699901,16.0974692 C11.1699901,16.3930557 11.3862525,16.643493 11.6786183,16.6870318 C11.7467893,16.697171 11.8159145,16.7090994 11.8859344,16.7229364 C12.2558946,16.7964155 12.6014016,16.5160378 12.6014016,16.1388012 L12.6014016,13.0317435 C12.6014016,12.9979861 12.6071272,12.9644672 12.6183996,12.9325586 L15.3875845,6.77033201 C15.3988569,6.73842346 15.4045825,6.70490457 15.4045825,6.67114712 L15.4045825,4.83100795 C15.4045825,4.66633598 15.5380616,4.53279722 15.7027932,4.53279722 L18.8216004,4.53279722 C18.9862724,4.53279722 19.1198111,4.66633598 19.1198111,4.83100795 L19.1198111,6.67114712 C19.1198111,6.70490457 19.1255368,6.73842346 19.1367495,6.77033201 L21.905994,12.9325586 C21.9172068,12.9644672 21.922992,12.9979861 21.922992,13.0317435 L21.922992,28.2401928 C21.922992,28.4048648 21.7894533,28.5384036 21.6247813,28.5384036 L13.6059543,28.5384036 C13.434662,28.5384036 13.2723757,28.6123002 13.1588767,28.7406501 C13.0932107,28.8149046 13.0254573,28.889159 12.9557356,28.962996 C12.5960338,29.3438111 12.8641252,29.9698151 13.3879622,29.9698151 L22.7579821,29.9698151 C23.0873857,29.9698151 23.3544036,29.7027972 23.3544036,29.3733936 L23.3544036,12.7486819 C23.3544036,12.6811074 23.3428926,12.6140696 23.3204672,12.5503718 Z" id="Path" fill="#606060"></path>
                <path d="M19.8754771,2.7435328 C19.8754771,2.90820477 19.7419384,3.04174354 19.5772664,3.04174354 L14.9471272,3.04174354 C14.7823956,3.04174354 14.6489165,2.90820477 14.6489165,2.7435328 L14.6489165,1.8489006 C14.6489165,1.68422863 14.7823956,1.55068986 14.9471272,1.55068986 L19.5772664,1.55068986 C19.7419384,1.55068986 19.8754771,1.68422863 19.8754771,1.8489006 L19.8754771,2.7435328 Z" id="Path" fill="#FFFFFF"></path>
                <path d="M13.9840855,18.9981173 C12.9384394,17.5417157 11.6257157,17.2360497 10.7085984,17.2360497 C10.3662525,17.2360497 9.9260338,17.2810199 9.4110835,17.4298867 C9.20442346,17.4896481 9.00348907,17.3208608 9.03020875,17.1073419 C9.10583499,16.5029284 9.23871769,15.757163 9.47245527,14.9986342 C9.56496024,14.6985149 9.40434394,14.3785348 9.11012922,14.2686143 L8.88647117,14.1850557 C8.5645825,14.0647575 8.20857853,14.2405229 8.10730616,14.5689125 C7.85382704,15.3902445 7.67096421,16.6041412 7.59104374,17.2014573 C7.56682903,17.3822326 7.38694831,17.500503 7.2123161,17.4477793 C6.67148111,17.2847177 6.21020875,17.2360497 5.85468191,17.2360497 C4.93750497,17.2360497 3.62478131,17.5417157 2.57919483,18.9981173 C1.7610835,20.1375805 1.44653082,21.5689324 1.66941352,23.1374016 C1.86849901,24.5380974 2.45048708,25.7421531 2.77959245,26.335175 C3.23925447,27.1634254 4.93637177,29.8658111 7.47432406,29.8658111 C7.74575547,29.8658111 8.01569583,29.8342604 8.28164016,29.7716958 C8.54746521,29.8342008 8.81740557,29.8658111 9.08877734,29.8658111 L9.08913519,29.8658111 C11.6268489,29.8658111 13.3239066,27.1634851 13.7835686,26.3352346 C14.1127932,25.7421531 14.6947217,24.5380974 14.8938072,23.1374016 C15.1167495,21.5689324 14.8021968,20.1375805 13.9840855,18.9981173" id="Path" fill="#84C225"></path>
                <path d="M12.5320378,25.6405825 C12.0612823,26.4887535 10.3875447,29.0214573 8.37694831,28.3098668 C8.31545726,28.2881571 8.24782306,28.2881571 8.18633201,28.3098668 C6.17567594,29.0214573 4.50193837,26.4887535 4.0311829,25.6405825 C3.26740557,24.2644592 2.37247515,21.7403439 3.74197813,19.8329284 C5.25545726,17.7248171 7.49692843,19.0399861 8.11893638,19.4477594 C8.21794235,19.5127097 8.34533797,19.5127097 8.44428429,19.4477594 C9.06635189,19.0399861 11.3078231,17.7248171 12.8213022,19.8329284 C14.1907455,21.7403439 13.2958151,24.2644592 12.5320378,25.6405825" id="Path" fill="#FFFFFF"></path>
                <polygon id="Fill-6" fill="#606060" points="9.76033598 5.75854473 11.8073738 6.69361431 9.76033598 7.62862425 8.8252664 9.67572167 7.89025646 7.62862425 5.84315905 6.69361431 7.89025646 5.75854473 8.8252664 3.71150696"></polygon>
                <polygon id="Fill-8" fill="#606060" points="2.5957336 12.0381829 3.95223459 12.6578052 2.5957336 13.2774274 1.97611133 14.6339284 1.35648907 13.2774274 -1.19284294e-05 12.6578052 1.35648907 12.0381829 1.97611133 10.6816819"></polygon>
                <polygon id="Fill-11" fill="#606060" points="2.61090656 5.68244732 3.51883897 6.09719881 2.61090656 6.51189066 2.19621471 7.41982306 1.78146322 6.51189066 0.873530815 6.09719881 1.78146322 5.68244732 2.19621471 4.77451491"></polygon>
                <polygon id="Fill-13" fill="#606060" points="26.7784115 9.8405666 27.6863439 10.2552584 26.7784115 10.6700099 26.3637197 11.5779423 25.9489682 10.6700099 25.0410358 10.2552584 25.9489682 9.8405666 26.3637197 8.93263419"></polygon>
                <polygon id="Fill-15" fill="#606060" points="27.2835328 0.728045726 27.8392187 0.981882704 27.2835328 1.23571968 27.0296958 1.79140557 26.7758588 1.23571968 26.220173 0.981882704 26.7758588 0.728045726 27.0296958 0.172359841"></polygon>
                <polygon id="Fill-17" fill="#84C225" points="5.97763419 1.0272167 6.8855666 1.44196819 5.97763419 1.85666004 5.5628827 2.76459245 5.14819085 1.85666004 4.24025845 1.44196819 5.14819085 1.0272167 5.5628827 0.119284294"></polygon>
                <polygon id="Fill-19" fill="#84C225" points="25.2223002 4.53407356 26.6682048 5.1945507 25.2223002 5.85496819 24.5618231 7.30093241 23.9014056 5.85496819 22.455501 5.1945507 23.9014056 4.53407356 24.5618231 3.08816899"></polygon>
            </g>
        </g>
    </g>
</svg>