<?xml version="1.0" encoding="UTF-8"?>
<svg width="30px" height="30px" viewBox="0 0 30 30" version="1.1" xmlns="http://www.w3.org/2000/svg" xmlns:xlink="http://www.w3.org/1999/xlink">
    <!-- Generator: Sketch 49 (51002) - http://www.bohemiancoding.com/sketch -->
    <title>return</title>
    <desc>Created with Sketch.</desc>
    <defs></defs>
    <g id="Thank-you-page" stroke="none" stroke-width="1" fill="none" fill-rule="evenodd">
        <g id="Thank-you-Page-Icons_web" transform="translate(-19.000000, -146.000000)">
            <g id="return" transform="translate(19.000000, 146.000000)">
                <path d="M24.8397968,5.11420518 C22.09151,2.36591833 18.4374861,0.852412351 14.5508127,0.852412351 C12.2366295,0.852412351 10.0050956,1.3891255 7.99796414,2.40344821 L8.87190837,3.61217331 C10.5529841,2.80103785 12.4340199,2.33878685 14.4209522,2.3194243 C21.7165697,2.24848805 27.6243586,8.08743227 27.6351753,15.3833486 C27.6459323,22.6187869 21.783741,28.4876116 14.5508127,28.4876116 C7.32451793,28.4876116 1.4664502,22.6294841 1.4664502,15.4031892 C1.4664502,15.362492 1.46662948,15.3218546 1.46698805,15.2812171 C1.47015538,14.9414761 1.19633068,14.6645438 0.856589641,14.6645438 L0.61210757,14.6645438 C0.276669323,14.6645438 0.0036812749,14.9349024 0.000573705179,15.2702809 C0.000215139442,15.3145637 -2.39043825e-05,15.3588466 -2.39043825e-05,15.4031892 C-2.39043825e-05,19.2899821 1.51360159,22.9441255 4.26206773,25.6924124 C6.99427888,28.424504 10.6870279,29.9540259 14.5508725,29.9540259 C18.4374861,29.9540259 22.09151,28.4405199 24.8397968,25.6921733 C27.5880837,22.9439462 29.1015896,19.2898625 29.1015896,15.4031892 C29.1015896,11.5165159 27.5880837,7.86249203 24.8397968,5.11420518" id="Fill-4" fill="#84C225"></path>
                <path d="M5.43711155,0.421045817 L2.81133466,6.28251992 C2.6190239,6.71178287 2.96354582,7.18819721 3.43141434,7.1401494 L9.82051793,6.48337649 C10.2883865,6.43526892 10.528745,5.89873506 10.2531873,5.51757968 L6.48986056,0.312818725 C6.21430279,-0.0683366534 5.62942231,-0.00821713147 5.43711155,0.421045817" id="Path" fill="#84C225"></path>
                <path d="M6.4797012,2.80150398 L7.88665339,4.74732072 C8.02446215,4.93789841 7.90428287,5.20616534 7.67031873,5.230249 L5.28173307,5.47574701 C5.04776892,5.49977092 4.87553785,5.26156375 4.97169323,5.04696215 L5.95332669,2.85558765 C6.04948207,2.64098606 6.34189243,2.61092629 6.4797012,2.80150398" id="Path" fill="#FFFFFF"></path>
                <path d="M18.6330179,11.5948805 C18.3383367,11.5948805 18.0900299,11.3796215 18.0428187,11.0886454 C17.7970219,9.57370518 16.4797112,8.41344622 14.8964044,8.41344622 C13.3130976,8.41344622 11.9958466,9.57370518 11.7500498,11.0886454 C11.7027789,11.3796215 11.4545319,11.5948805 11.1597908,11.5948805 L7.26714143,11.5948805 C6.90708167,11.5948805 6.62883466,11.9108964 6.67431275,12.2680279 L7.75012948,19.5171514 C7.97829681,21.3077092 9.50196215,22.6496414 11.3070418,22.6496414 L18.4857669,22.6496414 C20.2909064,22.6496414 21.8145717,21.3077092 22.0426793,19.5171514 L23.118496,12.2680279 C23.1640339,11.9108964 22.8857271,11.5948805 22.5257271,11.5948805 L18.6330179,11.5948805 Z" id="Path" fill="#606060"></path>
                <path d="M18.2752291,21.2153785 L11.5175797,21.2153785 C10.3141733,21.2153785 9.29841633,20.3208167 9.1463247,19.1270319 L8.26000996,13.3657171 C8.23724104,13.1871514 8.3764243,13.0291434 8.5564243,13.0291434 L21.2363845,13.0291434 C21.4163845,13.0291434 21.5555677,13.1871514 21.5327988,13.3657171 L20.6464841,19.1270319 C20.4943924,20.3208167 19.4786355,21.2153785 18.2752291,21.2153785 Z" id="Path" fill="#FFFFFF"></path>
                <path d="M14.8964044,9.84770916 C15.7377789,9.84770916 16.4424801,10.4433466 16.611245,11.235 C16.6508068,11.4203785 16.5078586,11.5948805 16.3183566,11.5948805 L13.4744522,11.5948805 C13.2849502,11.5948805 13.142002,11.4203785 13.1815637,11.235 C13.3503287,10.4433466 14.0550896,9.84770916 14.8964044,9.84770916 Z" id="Path" fill="#FFFFFF"></path>
                <path d="M14.9633068,19.2105837 L14.7242629,19.2105837 C14.3942032,19.2105837 14.1266534,18.9429741 14.1266534,18.6129741 L14.1266534,15.5651653 C14.1266534,15.2351056 14.3942032,14.9675558 14.7242629,14.9675558 L14.9633068,14.9675558 C15.2933665,14.9675558 15.5609163,15.2351056 15.5609163,15.5651653 L15.5609163,18.6129741 C15.5609163,18.9429741 15.2933665,19.2105837 14.9633068,19.2105837" id="Fill-9" fill="#606060"></path>
                <path d="M17.5927888,19.2105837 L17.353745,19.2105837 C17.0236853,19.2105837 16.7561355,18.9429741 16.7561355,18.6129741 L16.7561355,15.5651653 C16.7561355,15.2351056 17.0236853,14.9675558 17.353745,14.9675558 L17.5927888,14.9675558 C17.9228486,14.9675558 18.1903984,15.2351056 18.1903984,15.5651653 L18.1903984,18.6129741 C18.1903984,18.9429741 17.9228486,19.2105837 17.5927888,19.2105837" id="Fill-11" fill="#606060"></path>
                <path d="M12.3338247,19.2105837 L12.0947809,19.2105837 C11.7647211,19.2105837 11.4971713,18.9429741 11.4971713,18.6129741 L11.4971713,15.5651653 C11.4971713,15.2351056 11.7647211,14.9675558 12.0947809,14.9675558 L12.3338247,14.9675558 C12.6638845,14.9675558 12.9314343,15.2351056 12.9314343,15.5651653 L12.9314343,18.6129741 C12.9314343,18.9429741 12.6638845,19.2105837 12.3338247,19.2105837" id="Fill-13" fill="#606060"></path>
            </g>
        </g>
    </g>
</svg>