<?xml version="1.0" encoding="UTF-8"?>
<svg width="20px" height="20px" viewBox="0 0 20 20" version="1.1" xmlns="http://www.w3.org/2000/svg" xmlns:xlink="http://www.w3.org/1999/xlink">
    <!-- Generator: Sketch 49 (51002) - http://www.bohemiancoding.com/sketch -->
    <title>Group</title>
    <desc>Created with Sketch.</desc>
    <defs></defs>
    <g id="Thank-you-page" stroke="none" stroke-width="1" fill="none" fill-rule="evenodd">
        <g id="Thank-you-Page-Icons_web" transform="translate(-230.000000, -190.000000)">
            <g id="Group" transform="translate(230.000000, 190.000000)">
                <path d="M17.0877767,2.94578118 C15.1464485,0.995445032 12.5434841,-0.0554881722 9.78421559,0.00225964107 C7.18845043,0.0565810841 4.70733397,1.12764903 2.88307988,2.97511707 C1.02336862,4.85858125 0,7.35066888 0,9.99998456 C0,11.8543053 0.504600577,13.6453345 1.46417709,15.2124177 C1.49686237,15.2658152 1.506641,15.3301077 1.49043311,15.3905889 L0.148604427,18.5895483 C0.0122810395,19.098268 0.477805582,19.5637539 0.986525505,19.4274306 L4.33809432,18.3375753 C4.40107796,18.3206745 4.46802695,18.331993 4.52250241,18.3677967 C6.12153994,19.4183449 7.96573628,19.9797692 9.89478345,19.9994804 C12.4772666,20.0258134 14.9809432,19.0503373 16.8587488,17.277287 C18.8816939,15.3671433 19.9999615,12.7695312 20,10.0000616 C20,7.35340227 18.9549182,4.82158415 17.0877767,2.94578118" id="Path" fill="#666666"></path>
                <path d="M9.8238949,18.9982688 C7.93299842,18.9619778 6.18481111,18.3424601 4.7518883,17.3119639 C4.69672277,17.2722969 4.62694105,17.2589467 4.56130251,17.2765552 L1.59199274,18.2633564 C1.4240793,18.3083558 1.2703984,18.1546752 1.31539782,17.9867237 L2.54848944,15.1870593 C2.56536901,15.1240295 2.55374512,15.0570868 2.51741566,15.0028421 C1.5882332,13.616034 1.03465974,11.956391 1.00159111,10.1697295 C0.908906872,5.1594201 4.876989,1.06175702 9.88776876,1.00068375 C14.9478446,0.939035048 19.0621652,5.05415312 18.9992888,10.1144874 C18.9367576,15.143441 14.8522831,19.0947891 9.8238949,18.9982688" id="Path" fill="#FFFFFF"></path>
                <path d="M6.82436709,5 L15,5 L15,5.01608669 C14.5183544,5.71810252 14.2464003,6.09310953 14.1841377,6.1413322 L12,6.1413322 C12.3002373,6.47365336 12.504193,6.87814018 12.6119066,7.3549797 L14.9405063,7.3549797 C14.9687896,7.36040429 14.9829905,7.3710664 14.9829905,7.38715309 C14.4616297,8.12657983 14.1954114,8.49631191 14.1841377,8.49631191 L12.6713608,8.49631191 C12.6373813,8.87685574 12.4446994,9.33498981 12.0934731,9.87071411 C11.628837,10.4120126 11.1841377,10.7628896 10.7592168,10.9236443 C9.9659019,11.2826769 9.20676424,11.462137 8.48160601,11.462137 L8.48160601,11.4782237 C8.48160601,11.531871 8.66004747,11.7542789 9.01700949,12.1453352 L13.0537975,16.7508433 L13.0537975,16.9678266 C13.0537975,16.9893379 13.0395965,17 13.0113133,17 L11.2351266,17 C8.03967563,13.4795581 6.44193038,11.7113311 6.44193038,11.6952444 L6.44193038,10.626265 L6.45893987,10.5860482 C6.74216772,10.6236088 7.07361551,10.6423142 7.45324367,10.6423142 C9.24351266,10.6423142 10.3568434,10.0931594 10.7931962,8.9946253 C10.8611946,8.8338706 10.8951741,8.66787836 10.8951741,8.49631191 L6.03401899,8.49631191 C6.01139241,8.49631191 6,8.4856498 6,8.46417593 C6.53821203,7.72471178 6.81293513,7.3549797 6.82436709,7.3549797 L10.6827136,7.3549797 L10.6827136,7.33893042 C10.4617484,6.91570074 10.0339003,6.58614799 9.3994462,6.35030958 C8.94608386,6.21102874 8.53813291,6.1413322 8.17563291,6.1413322 L6.01700949,6.1413322 L6.01700949,6.10115288 C6.53821203,5.36711331 6.80735759,5 6.82436709,5" id="Fill-4" fill="#666666"></path>
            </g>
        </g>
    </g>
</svg>