<?xml version="1.0" encoding="UTF-8"?>
<svg width="20px" height="13px" viewBox="0 0 20 13" version="1.1" xmlns="http://www.w3.org/2000/svg" xmlns:xlink="http://www.w3.org/1999/xlink">
    <!-- Generator: Sketch 49 (51002) - http://www.bohemiancoding.com/sketch -->
    <title>std delivery</title>
    <desc>Created with Sketch.</desc>
    <defs></defs>
    <g id="Thank-you-page" stroke="none" stroke-width="1" fill="none" fill-rule="evenodd">
        <g id="Thank-you-Page-Icons_web" transform="translate(-48.000000, -239.000000)">
            <g id="std-delivery" transform="translate(48.000000, 239.000000)">
                <path d="M19.9503749,7.07703369 L17.5519223,2.81269489 C17.4834117,2.69091739 17.3544755,2.61549265 17.2147076,2.61549265 L12.8046496,2.61549265 C12.6978024,2.61549265 12.611226,2.52897264 12.611226,2.42219503 L12.611226,0.423690938 C12.611226,0.210213046 12.4379958,0.0370956973 12.2243788,0.0370956973 L0.386854614,0.0370956973 C0.173198908,0.0370956973 7.41839762e-06,0.210213046 7.41839762e-06,0.423690938 L7.41839762e-06,10.8231029 C7.41839762e-06,11.0365808 0.173198908,11.2096981 0.386854614,11.2096981 L1.09319891,11.2096981 C1.18348904,11.2096981 1.26020084,11.2724812 1.28178692,11.3600837 C1.51455287,12.3046132 2.3689049,13.007366 3.38492038,13.007366 C4.40089717,13.007366 5.2552492,12.3046132 5.48801516,11.3600837 C5.50963991,11.2724812 5.58631303,11.2096981 5.67660316,11.2096981 L13.7528507,11.2096981 C13.841903,11.2096981 13.9178798,11.2707802 13.9406264,11.3567976 C14.1858488,12.2834278 15.0315355,12.9687065 16.0348237,12.9687065 C17.0381119,12.9687065 17.8837985,12.2834278 18.1289823,11.3567976 C18.1517289,11.2707802 18.227783,11.2096981 18.3167579,11.2096981 L19.6131602,11.2096981 C19.8267772,11.2096981 20.0000074,11.0365808 20.0000074,10.8231029 L20.0000074,7.2664267 C20.0000074,7.20004829 19.9829088,7.13486833 19.9503749,7.07703369 Z" id="Path" fill="#666666"></path>
                <path d="M19.226313,10.165891 C19.226313,10.2726686 19.1396979,10.3591886 19.0328894,10.3591886 L18.3066225,10.3591886 C18.2188469,10.3591886 18.1435277,10.2997689 18.1196593,10.2153752 C17.8624832,9.30664442 17.0253072,8.6388398 16.0348237,8.6388398 C15.0443401,8.6388398 14.2071254,9.30664442 13.9499881,10.2153752 C13.9260809,10.2997689 13.8508005,10.3591886 13.7630248,10.3591886 L12.8046496,10.3591886 C12.6978024,10.3591886 12.611226,10.2726686 12.611226,10.165891 L12.611226,3.58198076 C12.611226,3.47524181 12.6978024,3.38868314 12.8046496,3.38868314 L16.8752105,3.38868314 C16.9451138,3.38868314 17.0095625,3.42637617 17.0438372,3.48726492 L19.2014774,7.32352681 C19.2177637,7.35244414 19.226313,7.38503411 19.226313,7.41824265 L19.226313,10.165891 Z" id="Path" fill="#FFFFFF"></path>
                <path d="M11.7601622,10.165891 C11.7601622,10.2726686 11.6735471,10.3591886 11.5667386,10.3591886 L5.64495906,10.3591886 C5.55849871,10.3591886 5.48387589,10.3014313 5.45892425,10.2186612 C5.19029755,9.32810045 4.36248324,8.67749932 3.38492038,8.67749932 C2.40735752,8.67749932 1.5795432,9.32810045 1.31091651,10.2186612 C1.28592618,10.3014313 1.21134204,10.3591886 1.12484301,10.3591886 L1.04449485,10.3591886 C0.937647651,10.3591886 0.851071248,10.2726686 0.851071248,10.165891 L0.851071248,1.08090285 C0.851071248,0.974125241 0.937647651,0.887605226 1.04449485,0.887605226 L11.5667386,0.887605226 C11.6735471,0.887605226 11.7601622,0.974125241 11.7601622,1.08090285 L11.7601622,10.165891 Z" id="Path" fill="#FFFFFF"></path>
                <path d="M16.0348237,12.195516 C15.2656554,12.195516 14.6421738,11.5724018 14.6421738,10.8037731 C14.6421738,10.0351058 15.2656554,9.41203028 16.0348237,9.41203028 C16.8039533,9.41203028 17.4274736,10.0351058 17.4274736,10.8037731 C17.4274736,11.5724018 16.8039533,12.195516 16.0348237,12.195516 Z" id="Path" fill="#FFFFFF"></path>
                <path d="M3.38492038,12.2341755 C2.6157521,12.2341755 1.99227047,11.6110613 1.99227047,10.8424327 C1.99227047,10.0737654 2.6157521,9.4506898 3.38492038,9.4506898 C4.15404997,9.4506898 4.77757028,10.0737654 4.77757028,10.8424327 C4.77757028,11.6110613 4.15404997,12.2341755 3.38492038,12.2341755 Z" id="Path" fill="#FFFFFF"></path>
                <path d="M17.7345228,6.76443664 L16.494364,4.53211974 C16.4262072,4.40941441 16.2968525,4.33329381 16.1564411,4.33329381 L13.840117,4.33329381 C13.6266005,4.33329381 13.4535218,4.50633384 13.4535218,4.71988905 L13.4535218,6.95216729 C13.4535218,7.16564518 13.6266005,7.33876253 13.840117,7.33876253 L17.3965999,7.33876253 C17.6913788,7.33876253 17.8777177,7.02210237 17.7345228,6.76443664" id="Path" fill="#666666"></path>
                <path d="M16.4110527,6.56557205 L14.4200099,6.56557205 C14.3132323,6.56557205 14.2267123,6.47901338 14.2267123,6.37227443 L14.2267123,5.29978191 C14.2267123,5.19300431 14.3132323,5.10648429 14.4200099,5.10648429 L15.8152321,5.10648429 C15.8854378,5.10648429 15.9501152,5.14452526 15.9842129,5.20591659 L16.5800335,6.27837045 C16.6516309,6.40722264 16.5584615,6.56557205 16.4110527,6.56557205" id="Path" fill="#FFFFFF"></path>
            </g>
        </g>
    </g>
</svg>