<?xml version="1.0" encoding="UTF-8"?>
<svg width="30px" height="30px" viewBox="0 0 30 30" version="1.1" xmlns="http://www.w3.org/2000/svg" xmlns:xlink="http://www.w3.org/1999/xlink">
    <!-- Generator: Sketch 49 (51002) - http://www.bohemiancoding.com/sketch -->
    <title>voucher</title>
    <desc>Created with Sketch.</desc>
    <defs></defs>
    <g id="Thank-you-page" stroke="none" stroke-width="1" fill="none" fill-rule="evenodd">
        <g id="Thank-you-Page-Icons_web" transform="translate(-193.000000, -52.000000)">
            <g id="voucher" transform="translate(193.000000, 52.000000)">
                <path d="M29.8180524,13.2994655 L27.7319918,11.2091821 C27.5458238,11.0223235 27.501482,10.7363413 27.6222948,10.5016922 C28.0507753,9.65484969 28.2730019,8.71835998 28.2707797,7.76889866 C28.2707797,5.4004776 26.9198706,3.23974886 24.5829009,2.17153024 C24.5671433,2.16424279 24.5501736,2.15756262 24.53381,2.15148975 C22.7877494,1.49926303 21.0016888,1.62132781 19.5150221,2.37679339 C19.2801987,2.49820524 18.9940339,2.45405302 18.8065372,2.26748165 L16.7216888,0.177805539 C16.4850222,-0.0592685129 16.1013856,-0.0592685129 15.8647191,0.177805539 L0.177446336,15.8354978 C-0.0591487785,16.0726435 -0.0591487785,16.4570566 0.177446336,16.6942023 L2.24714331,18.7680889 C2.43485523,18.9566015 2.47810232,19.2456631 2.35380997,19.4810444 C1.90477257,20.343345 1.67122405,21.3019362 1.67320391,22.2745667 C1.67320391,24.6429877 3.024113,26.8031092 5.3610827,27.8719351 C5.37744634,27.8792225 5.39380997,27.8859027 5.41017361,27.8925829 C7.18047664,28.5533116 8.98956755,28.4191011 10.4877494,27.635093 C10.7233281,27.5097423 11.0128968,27.5525641 11.2022948,27.740761 L13.2725979,29.8176841 C13.5092644,30.0547581 13.892901,30.0547581 14.1295675,29.8176841 L29.8180524,14.1581699 C30.0546475,13.9210243 30.0546475,13.5366111 29.8180524,13.2994655 Z" id="Path" fill="#8F8F8F"></path>
                <path d="M27.7574463,14.1581699 L14.1295675,27.7529068 C13.892901,27.9899808 13.5092644,27.9899808 13.2725979,27.7529068 L10.9865372,25.4622185 C10.9695675,25.4798298 10.95381,25.4980485 10.9362342,25.5150525 C9.14332449,27.2620853 6.28251998,27.2423307 4.51380946,25.470704 C2.74509894,23.6990772 2.72431197,20.8324892 4.46714331,19.0352954 C4.48471906,19.0176841 4.50229482,19.0018946 4.51987058,18.9848906 L2.23441603,16.6948096 C1.99782092,16.4576639 1.99782092,16.0732508 2.23441603,15.8361051 L15.864113,2.23893914 C16.1007796,2.00186509 16.4844161,2.00186509 16.7210827,2.23893914 L18.5998706,4.12153024 C18.8166661,4.34116619 19.1630535,4.36385342 19.4065372,4.17436424 C21.2272924,2.73725191 23.8329742,2.89174232 25.4718923,4.53397806 C27.1108104,6.1762138 27.2649887,8.7871703 25.8307797,10.6116112 C25.6416733,10.8555878 25.6643147,11.2026764 25.8835069,11.4199108 L27.7622948,13.3025019 C27.995541,13.5406281 27.993376,13.9227129 27.7574463,14.1581699 Z" id="Path" fill="#FFFFFF"></path>
                <rect id="Rectangle-path" fill="#84C225" fill-rule="nonzero" x="14.5970918" y="8" width="1.66242424" height="15.3522267" rx="0.831212121"></rect>
                <path d="M21.9921699,12.8584865 C21.1558816,12.0203627 19.8980738,11.7695791 18.8052982,12.2230833 C17.7125226,12.6765875 17,13.7450624 17,14.9302476 C17,16.1154329 17.7125226,17.1839078 18.8052982,17.637412 C19.8980738,18.0909162 21.1558816,17.8401326 21.9921699,17.0020088 C22.5452644,16.4550763 22.8566079,15.7088929 22.8566079,14.9302476 C22.8566079,14.1516024 22.5452644,13.405419 21.9921699,12.8584865 Z" id="Path" fill="#84C225"></path>
                <path d="M20.9618669,15.9738711 C20.5415681,16.3951357 19.9093937,16.5212049 19.3601564,16.2932868 C18.810919,16.0653687 18.4527955,15.5283536 18.4527955,14.9326768 C18.4527955,14.337 18.810919,13.7999849 19.3601564,13.5720668 C19.9093937,13.3441487 20.5415681,13.4702179 20.9618669,13.8914825 C21.5356303,14.4665642 21.5356303,15.3987894 20.9618669,15.9738711 Z" id="Path" fill="#FFFFFF"></path>
                <path d="M12.9921699,12.8584865 C12.1558816,12.0203627 10.8980738,11.7695791 9.8052982,12.2230833 C8.71252262,12.6765875 8,13.7450624 8,14.9302476 C8,16.1154329 8.71252262,17.1839078 9.8052982,17.637412 C10.8980738,18.0909162 12.1558816,17.8401326 12.9921699,17.0020088 C13.5452644,16.4550763 13.8566079,15.7088929 13.8566079,14.9302476 C13.8566079,14.1516024 13.5452644,13.405419 12.9921699,12.8584865 Z" id="Path" fill="#84C225"></path>
                <path d="M11.9618669,15.971442 C11.5415681,16.3927066 10.9093937,16.5187758 10.3601564,16.2908577 C9.81091905,16.0629396 9.45279549,15.5259245 9.45279549,14.9302476 C9.45279549,14.3345708 9.81091905,13.7975557 10.3601564,13.5696376 C10.9093937,13.3417195 11.5415681,13.4677887 11.9618669,13.8890533 C12.238385,14.1650776 12.3939709,14.5399815 12.394312,14.9310844 C12.394653,15.3221872 12.2397213,15.697363 11.9636851,15.9738711 L11.9618669,15.971442 Z" id="Path" fill="#FFFFFF"></path>
            </g>
        </g>
    </g>
</svg>