<svg xmlns="http://www.w3.org/2000/svg" xmlns:xlink="http://www.w3.org/1999/xlink" width="610" height="504" viewBox="0 0 610 504"><svg width="30" height="30" viewBox="0 0 30 30" id="add-item" x="0" y="0"><title>add item</title><g fill="none" fill-rule="evenodd"><path d="M20.58 0a9.388 9.388 0 1 0-.001 18.775A9.388 9.388 0 0 0 20.58 0z" fill="#84C225"></path><path d="M20.58 17.24a7.852 7.852 0 1 1-.001-15.704 7.852 7.852 0 0 1 .001 15.703z" fill="#FFF"></path><rect fill="#8F8F8F" fill-rule="nonzero" x="12.119" y="19.69" width="1.44" height="5.4" rx=".72"></rect><path d="M24.18 8.629H21.6a.3.3 0 0 1-.3-.3v-2.58a.6.6 0 0 0-.6-.6h-.24a.6.6 0 0 0-.6.6v2.58a.3.3 0 0 1-.3.3h-2.58a.6.6 0 0 0-.6.6v.24a.6.6 0 0 0 .6.6h2.58a.3.3 0 0 1 .3.3v2.58a.6.6 0 0 0 .6.6h.24a.6.6 0 0 0 .6-.6v-2.58a.3.3 0 0 1 .3-.3h2.58a.6.6 0 0 0 .6-.6v-.24a.6.6 0 0 0-.6-.6z" fill="#84C225"></path><rect fill="#8F8F8F" fill-rule="nonzero" x="8.519" y="19.69" width="1.44" height="5.4" rx=".72"></rect><rect fill="#8F8F8F" fill-rule="nonzero" x="15.719" y="19.69" width="1.44" height="5.4" rx=".72"></rect><path d="M23.773 19.276a1.02 1.02 0 0 0-.692.772L22.21 24.5c-.379 2.322-1.077 4.03-4.74 4.028h-9.54c-3.531-.072-4.359-1.706-4.74-4.028l-1.601-8.18a.6.6 0 0 1 .588-.715h8.927a.6.6 0 0 0 .517-.905l-.01-.014a1.063 1.063 0 0 0-.91-.52H8.347a.3.3 0 0 1-.3-.341 5.126 5.126 0 0 1 1.468-2.961c.4-.407.622-.955.616-1.526v-.01a.389.389 0 0 0-.605-.321 6.587 6.587 0 0 0-2.91 4.637.6.6 0 0 1-.594.523H1.2a1.2 1.2 0 0 0-1.179 1.42L1.967 25.94a4.8 4.8 0 0 0 4.74 4.028h11.988a4.8 4.8 0 0 0 4.74-4.028l1.125-5.985a.6.6 0 0 0-.768-.684l-.019.005z" fill="#8F8F8F"></path></g></svg><svg width="8" height="15" viewBox="0 0 8 15" id="arrow-right" x="30" y="30"><title>Page 1</title><path d="M.208.086L.086.208a.294.294 0 0 0 0 .417l6.772 6.77a.147.147 0 0 1 0 .209L.086 14.375a.294.294 0 0 0 0 .417l.122.122a.294.294 0 0 0 .417 0l7.197-7.215a.294.294 0 0 0 0-.415L.625.086a.294.294 0 0 0-.417 0" fill="#444" fill-rule="evenodd"></path></svg><svg width="158" height="64" viewBox="0 0 158 64" id="bigbasket" x="38" y="45"><title>bigbasket</title><g fill="none" fill-rule="evenodd"><path d="M9.409.637h44.055c5.188 0 9.497 4.227 9.497 9.333v44.114c0 5.195-4.309 9.422-9.497 9.422H9.41c-5.188 0-9.41-4.227-9.41-9.422V9.97C0 4.864 4.222.637 9.41.637" fill="#A5CD38"></path><path d="M79.58 24.5c-.702 1.144-1.67 1.672-2.989 1.672-.967 0-1.758-.264-2.374-.792-.704-.528-1.231-1.321-1.495-2.201-.352-.88-.528-1.762-.528-2.818 0-.969.176-1.85.528-2.818a4.077 4.077 0 0 1 1.495-2.113c.616-.529 1.407-.792 2.374-.792.88 0 1.583.263 2.198.792.616.528 1.056 1.233 1.407 2.025.264.969.44 1.937.44 2.994 0 1.585-.352 2.994-1.055 4.05m5.188-8.717c-.528-1.409-1.407-2.553-2.55-3.522-1.143-.88-2.55-1.321-4.133-1.321a7.574 7.574 0 0 0-3.165.705c-1.056.44-1.847 1.056-2.375 1.937h-.088V2.222h-4.836v27.56s4.397.529 4.572-2.377v-.352l.088.175c.088.177.264.44.528.793.352.44.967.793 1.846 1.233.88.44 2.023.617 3.43.617 1.583 0 2.99-.44 4.133-1.321 1.143-.881 2.022-2.114 2.55-3.523.616-1.496.88-2.993.88-4.578 0-1.585-.264-3.17-.88-4.667M86.967 29.87h4.837V11.468h-4.837V29.87zm0-23.598h4.837v-4.05h-4.836v4.05zM105.961 22.034c-.175.616-.352 1.144-.703 1.585a3.9 3.9 0 0 1-1.32 1.056c-.527.353-1.143.44-1.846.44a4.076 4.076 0 0 1-1.846-.44c-.528-.352-.88-.793-1.232-1.32-.263-.441-.527-1.057-.615-1.674-.176-.616-.176-1.32-.176-1.937 0-.704.088-1.32.176-1.936.176-.617.44-1.146.704-1.586.351-.528.79-.88 1.23-1.144.528-.264 1.144-.44 1.759-.44.792 0 1.496.176 2.023.44.528.352.967.704 1.231 1.233.351.528.527 1.144.703 1.76.088.617.176 1.321.176 2.113a6.72 6.72 0 0 1-.264 1.85m.264-8.189h-.088a4.832 4.832 0 0 0-2.198-2.201 6.506 6.506 0 0 0-2.99-.705c-1.231 0-2.374.264-3.253.705-.968.528-1.76 1.144-2.375 2.025-.703.792-1.143 1.76-1.495 2.817-.351 1.057-.44 2.202-.44 3.347 0 1.232.089 2.377.353 3.433.352 1.145.79 2.113 1.407 2.906.615.793 1.406 1.497 2.374 1.937.879.44 2.022.705 3.34.705 1.056 0 2.112-.176 3.079-.617.967-.528 1.758-1.232 2.198-2.113h.088v2.29c.088 1.32-.264 2.377-.879 3.17-.616.88-1.583 1.232-2.99 1.232-.88 0-1.583-.176-2.286-.528a2.702 2.702 0 0 1-1.32-1.85h-4.836c.088.969.352 1.85.88 2.554a5.086 5.086 0 0 0 1.847 1.761c.703.529 1.494.88 2.462 1.057.879.264 1.758.352 2.637.352 2.023 0 3.606-.264 4.837-.88 1.143-.529 2.11-1.233 2.726-2.026.615-.792 1.055-1.585 1.23-2.553.265-.88.353-1.762.353-2.466v-16.73h-.616c-3.87.088-4.045 2.378-4.045 2.378" fill="#EC1D24"></path><path d="M157.315 46.16v-.353c-.263-2.113-2.902-2.113-2.902-2.113v-9.51h-2.99v9.51h-2.462v2.466h2.462v11.975c0 2.113.616 3.874 3.606 3.874.352 0 1.231-.176 2.286-.264v-2.377h-1.055c-.615 0-1.847 0-1.847-1.41V46.16h2.902zM132.166 44.751c-1.671-1.761-3.693-.176-4.045.176l-6.771 6.604V34.185h-2.902v27.824h2.902v-6.868l2.55-2.289 5.628 9.157h3.869l-7.298-11.359 6.067-5.899zM111.501 51.267l-2.99-.793c-2.374-.616-3.34-.968-3.34-2.377 0-2.29 2.725-2.553 3.605-2.553 2.022 0 3.077.44 3.605 1.144 0 0 1.67 1.937 3.605 1.32-.176-1.496-1.319-5.106-6.859-5.106-3.605 0-6.86 1.761-6.86 5.723 0 2.466 1.672 3.786 4.222 4.403l3.517.88c2.55.617 3.518 1.145 3.518 2.554 0 2.025-1.934 2.906-4.133 2.906-4.22 0-4.661-2.29-4.748-3.698h-2.99c.176 2.2.703 6.34 7.826 6.34 4.045 0 7.122-2.29 7.122-5.988 0-2.466-1.319-3.874-5.1-4.755" fill="#231F20"></path><path d="M140.608 45.632c3.693 0 4.836 2.553 5.012 5.371h-7.739c-1.142.088-1.846.616-2.285 1.144v-1.144c0-2.818 2.198-5.371 5.012-5.371m.263 13.736c-3.517 0-5.275-2.202-5.275-5.988h13.19c0-6.34-2.55-10.478-7.74-10.478-5.978 0-8.704 4.402-8.704 10.038 0 5.195 2.99 9.069 8.09 9.069 2.902 0 4.045-.704 4.924-1.32 2.287-1.497 3.078-4.05 3.166-4.931h-2.99c-.176 1.408-1.847 3.61-4.66 3.61M96.376 55.23c0 2.377-2.813 4.226-5.627 4.226-2.286 0-3.254-1.145-3.254-3.17 0-2.29 2.374-2.73 3.87-2.906 3.78-.528 4.484-.793 5.011-1.145v2.994zm4.045 4.138c-.615 0-1.055-.264-1.055-1.057v-10.39c0-4.667-5.188-5.019-6.683-5.019-4.396 0-7.21 1.673-7.386 5.811 1.67.264 2.726-.705 3.166-1.409.087-.176.175-.351.35-.528.528-.792 1.496-1.409 3.343-1.409 2.902 0 4.309 1.057 4.309 2.995 0 1.76-.88 2.024-1.584 2.113l-5.012.616c-5.1.616-5.54 4.138-5.54 5.635 0 3.17 2.375 5.283 5.716 5.283 3.518 0 5.277-1.673 6.507-2.994.088 1.41.527 2.818 3.166 2.818.703 0 1.143-.264 1.67-.352V59.28c-.351 0-.703.088-.967.088zM75.448 59.368c-1.935 0-4.924-1.321-4.924-6.076 0-2.994.527-7.66 4.836-7.66 4.748 0 5.012 4.402 5.012 6.78 0 3.962-1.583 6.956-4.924 6.956m.528-16.466c-2.11 0-3.958.88-5.188 2.818h-.089V34.185h-3.077V61.48h1.143c1.582-.088 1.759-1.497 1.759-1.76v-.53h.087c.616 1.057 1.847 2.818 4.925 2.818 6.156 0 7.914-5.811 7.914-10.126 0-5.107-2.726-8.98-7.474-8.98M32.924 8.518h-5.012v13.558c1.79-.022 3.48.555 5.012 1.529V8.518z" fill="#231F20"></path><path d="M29.23 46.556c-1.142 1.937-2.813 2.817-5.1 2.817-1.582 0-2.901-.44-4.044-1.32a8.484 8.484 0 0 1-2.55-3.698c-.529-1.497-.88-3.082-.88-4.755s.351-3.346.88-4.843c.527-1.497 1.406-2.73 2.55-3.61 1.143-.968 2.462-1.409 4.044-1.409 1.495 0 2.814.44 3.87 1.321.967.88 1.758 2.113 2.286 3.61.44 1.497.704 3.082.704 4.93 0 2.819-.616 5.108-1.76 6.957m8.882-14.793c-.967-2.465-2.462-4.49-4.397-5.987-1.934-1.497-4.22-2.29-6.946-2.29-1.935 0-3.782.353-5.452 1.145-1.672.792-3.078 1.937-4.045 3.434h-.088V8.518H8.918v47.02s7.562.88 7.826-3.963V50.782l.088.353c.175.352.44.792.88 1.409.615.704 1.582 1.408 3.077 2.113 1.583.704 3.517.968 5.98.968 2.726 0 5.012-.704 6.946-2.2 1.935-1.586 3.43-3.523 4.397-5.988.968-2.554 1.495-5.196 1.495-7.837 0-2.73-.527-5.283-1.495-7.837" fill="#EC1D24"></path><path d="M52.549 31.763c-2.67-6.804-10.165-10.277-16.796-7.132-.299.142-.589.295-.87.46a16.743 16.743 0 0 1 2.666 3.061c.82-.289 1.708-.426 2.678-.426 6.372 0 8.264 6.735 8.264 11.883 0 5.202-2.02 11.777-8.264 11.777-1.056 0-2.013-.163-2.892-.488a16.44 16.44 0 0 1-3.06 3.272c.29.162.606.324.95.487 1.583.704 3.517.968 5.98.968 2.726 0 5.012-.704 6.947-2.2 1.934-1.586 3.43-3.523 4.397-5.988.967-2.554 1.494-5.196 1.494-7.837 0-2.73-.527-5.283-1.494-7.837" fill="#231F20"></path></g></svg><svg width="24" height="24" viewBox="0 0 24 24" id="close" x="196" y="109"><title>close</title><g fill="none" fill-rule="evenodd"><path d="M11.96 22.652c-5.88 0-10.648-4.766-10.648-10.646C1.313 6.126 6.08 1.36 11.96 1.36s10.646 4.767 10.646 10.647S17.84 22.652 11.96 22.652z" fill="#4A4A4A"></path><path d="M20.415 3.55A11.959 11.959 0 1 0 3.503 20.461 11.959 11.959 0 0 0 20.415 3.549z" fill="#4A4A4A"></path><path d="M16.5 15.763l-3.516-3.515a.234.234 0 0 1 0-.332L16.5 8.4a.563.563 0 1 0-.797-.796l-3.515 3.515a.234.234 0 0 1-.332 0L8.34 7.604a.562.562 0 1 0-.796.796l3.515 3.516a.234.234 0 0 1 0 .332l-3.515 3.515a.562.562 0 1 0 .796.797l3.516-3.516a.234.234 0 0 1 .332 0l3.515 3.516a.563.563 0 1 0 .797-.797z" fill="#FFF" fill-rule="nonzero"></path></g></svg><svg width="26" height="14" viewBox="0 0 26 14" id="exp-del" x="220" y="133"><title>EXP del</title><g fill="none" fill-rule="evenodd"><path d="M8.142 6.37c-1.953 0-3.536 1.6-3.536 3.576 0 1.975 1.583 3.576 3.536 3.576 1.952 0 3.535-1.601 3.535-3.576S10.094 6.37 8.142 6.37" fill="#666"></path><path d="M8.142 12.578c-1.437 0-2.602-1.179-2.602-2.632 0-1.454 1.165-2.632 2.602-2.632 1.437 0 2.602 1.178 2.602 2.632 0 1.453-1.165 2.632-2.602 2.632" fill="#FFF"></path><path d="M18.407 7.017c0-.272-.172-.493-.384-.493h-5.832c-.212 0-.384.22-.384.493 0 .272.172.493.384.493h4.77c.157 0 .269.15.224.3l-.904 2.987a.233.233 0 0 1-.223.165h-2.227a.233.233 0 0 1-.126-.037l-.629-.404v.002a.314.314 0 0 0-.172-.054c-.211 0-.383.221-.383.493a.52.52 0 0 0 .213.44l-.001.002.767.493v-.002c.053.033.11.054.172.054h3.008c.163 0 .301-.13.357-.315l1.343-4.438a.618.618 0 0 0 .027-.18M21.087 2.078c-.834.122-1.432.766-1.432 1.212 0 .446.598 1.09 1.432 1.211.013.002.275 0 .275-.24V2.319c0-.24-.262-.242-.275-.24M21.895 6.37c-1.953 0-3.536 1.6-3.536 3.576 0 1.975 1.583 3.576 3.536 3.576 1.952 0 3.535-1.601 3.535-3.576S23.847 6.37 21.895 6.37" fill="#666"></path><path d="M21.895 12.578c-1.437 0-2.603-1.179-2.603-2.632 0-1.454 1.166-2.632 2.603-2.632 1.437 0 2.602 1.178 2.602 2.632 0 1.453-1.165 2.632-2.602 2.632" fill="#FFF"></path><path d="M21.615 10.865l-4.641-9.433a.466.466 0 0 0-.418-.26h-.387a.466.466 0 0 1-.466-.466V.52c0-.257.208-.465.466-.465h1.084c.177 0 .34.1.418.26l4.948 10.058c.114.23.019.51-.213.623l-.167.082a.467.467 0 0 1-.624-.213" fill="#666"></path><path d="M14.887 2.107c-1.582 0-2.82.975-2.82 2.218 0 .186.028.361.083.523H8.565a.414.414 0 0 1-.214-.06L5.855 3.659a.421.421 0 0 0-.593.177l-.086.162a.483.483 0 0 0 .166.634l2.735 1.273c.065.039.138.06.213.06h5.858a.41.41 0 0 0 .068-.007c.1.002.199.003.3.003h.742c.47 0 .927-.01 1.329-.139.702-.224 1.12-.783 1.12-1.497 0-1.243-1.239-2.218-2.82-2.218" fill="#666"></path><path d="M14.887 4.936c-.168 0-.33.002-.483 0-.52.005-.902-.088-.902-.088-.27-.093-.41-.234-.41-.523 0-.66.804-1.194 1.795-1.194.991 0 1.795.535 1.795 1.194 0 .66-.804.611-1.795.611" fill="#FFF"></path><path d="M4.092 4.702L.19 3.773c-.27-.064-.222-.454.056-.454h3.957c.26 0 .47.206.47.46v.475a.468.468 0 0 1-.581.448M4.884 7.028L.19 6.1c-.27-.064-.222-.454.056-.454h4.75c.259 0 .47.206.47.46v.474a.468.468 0 0 1-.582.448" fill="#666"></path></g></svg><svg width="34" height="30" viewBox="0 0 34 30" id="free-delivery" x="246" y="147"><title>free delivery</title><g fill="none" fill-rule="evenodd"><path d="M28.041 5.934h-5.005a.667.667 0 0 1-.667-.667V.733a.667.667 0 0 0-.667-.666H.667A.667.667 0 0 0 0 .733v25.713c0 .18.146.327.327.327H3.44c.182 0 .327-.15.327-.332v-.003c0-.295.029-.583.085-.861a.335.335 0 0 0-.326-.404H1.933a.333.333 0 0 1-.333-.333V2c0-.184.15-.333.333-.333h18.503c.184 0 .333.149.333.333v22.84c0 .184-.15.333-.333.333h-7.647a.335.335 0 0 0-.326.404c.056.278.085.566.085.86v.004c0 .183.144.332.327.332h9.457c.183 0 .332-.15.332-.332v-.003c0-.298.03-.589.086-.87a.328.328 0 0 0-.319-.395h-.062V7.867c0-.184.15-.333.333-.333h4.556c.126 0 .242.071.298.184l4.021 8.057a.333.333 0 0 1 .035.149v9.249a.274.274 0 0 0-.268.332 4.389 4.389 0 0 1 .1.99.274.274 0 0 0 .274.278h.828a.667.667 0 0 0 .666-.667v-10.48a.667.667 0 0 0-.07-.298l-4.504-9.025a.667.667 0 0 0-.597-.37" fill="#606060"></path><path d="M8.158 22.912a3.53 3.53 0 0 0-3.526 3.526 3.53 3.53 0 0 0 3.526 3.525 3.53 3.53 0 0 0 3.525-3.525 3.53 3.53 0 0 0-3.525-3.526" fill="#84C225"></path><path d="M8.158 28.363a1.926 1.926 0 1 1 0-3.851 1.926 1.926 0 0 1 0 3.851" fill="#FFF"></path><path d="M27.054 22.912a3.53 3.53 0 0 0-3.526 3.526 3.53 3.53 0 0 0 3.526 3.525 3.53 3.53 0 0 0 3.526-3.525 3.53 3.53 0 0 0-3.526-3.526" fill="#84C225"></path><path d="M27.054 28.363a1.926 1.926 0 1 1 0-3.851 1.926 1.926 0 0 1 0 3.851" fill="#FFF"></path><path fill="#84C225" d="M3.14 9.5h3.341v.863H4.146v1.026h2.286v.864H4.146v1.968H3.14zM8.923 12.529h-.736v1.692H7.182V9.5H9.39c.984 0 1.586.644 1.586 1.521 0 .836-.524 1.282-1.034 1.402l1.062 1.798H9.851l-.928-1.692z"></path><path d="M9.242 10.363H8.187v1.302h1.055c.403 0 .708-.254.708-.65 0-.397-.305-.652-.708-.652z" fill="#FFF"></path><path fill="#84C225" d="M11.733 9.5h3.341v.863h-2.336v1.026h2.286v.864h-2.286v1.097h2.336v.87h-3.34zM15.86 9.5h3.34v.863h-2.335v1.026h2.286v.864h-2.286v1.097H19.2v.87h-3.34z"></path><path d="M26.867 9.04h-2.852a.667.667 0 0 0-.666.666v4.07c0 .368.298.667.666.667h4.845a.667.667 0 0 0 .599-.96l-1.994-4.07a.667.667 0 0 0-.598-.374" fill="#606060"></path><path d="M25.222 10.554h.856c.137 0 .262.078.323.202l.81 1.655a.359.359 0 0 1-.322.516h-1.667a.359.359 0 0 1-.359-.359v-1.655c0-.198.161-.359.36-.359" fill="#FFF"></path></g></svg><svg width="30" height="30" viewBox="0 0 30 30" id="help" x="280" y="177"><title>Help</title><g fill="none" fill-rule="evenodd"><path d="M25.569 4.387A14.88 14.88 0 0 0 14.978 0c-4 0-7.762 1.558-10.591 4.387A14.88 14.88 0 0 0 0 14.978c0 4 1.558 7.762 4.387 10.591a14.88 14.88 0 0 0 10.591 4.387c4 0 7.762-1.558 10.591-4.387a14.88 14.88 0 0 0 4.387-10.591c0-4-1.558-7.762-4.387-10.591z" fill="#979797"></path><path d="M14.978 28.312c-7.364 0-13.334-5.97-13.334-13.334S7.614 1.644 14.978 1.644s13.334 5.97 13.334 13.334-5.97 13.334-13.334 13.334z" fill="#FFF"></path><path d="M14.474 20.253h.78c.323 0 .586.263.586.587v.867a.587.587 0 0 1-.587.588h-.779a.587.587 0 0 1-.587-.588v-.867c0-.324.263-.587.587-.587zM11.752 8.981c.809-.86 1.918-1.29 3.329-1.29 1.305 0 2.35.368 3.134 1.104.785.736 1.178 1.677 1.178 2.822 0 .693-.142 1.256-.427 1.688-.285.431-.868 1.066-1.75 1.904-.641.608-1.059 1.123-1.252 1.545-.148.323-.24.764-.275 1.322a.586.586 0 0 1-.585.548h-.573a.588.588 0 0 1-.586-.626c.04-.652.145-1.197.315-1.636.222-.573.717-1.228 1.485-1.968l.8-.775a3.37 3.37 0 0 0 .585-.697c.272-.425.408-.867.408-1.325 0-.641-.196-1.197-.586-1.669-.39-.47-1.037-.706-1.94-.706-1.115 0-1.886.406-2.314 1.217-.188.352-.312.826-.374 1.421a.589.589 0 0 1-.584.532h-.585a.588.588 0 0 1-.585-.645c.107-1.118.501-2.04 1.182-2.766z" fill="#84C225"></path></g></svg><svg width="12" height="12" viewBox="0 0 12 12" id="info-active-filled" x="310" y="207"><title>info active</title><g fill="none" fill-rule="evenodd"><path d="M10.243 1.757A5.96 5.96 0 0 0 6 0a5.96 5.96 0 0 0-4.243 1.757A5.96 5.96 0 0 0 0 6a5.96 5.96 0 0 0 1.757 4.243A5.96 5.96 0 0 0 6 12a5.96 5.96 0 0 0 4.243-1.757A5.96 5.96 0 0 0 12 6a5.96 5.96 0 0 0-1.757-4.243" fill="#DA251D"></path><path d="M5.95 9.087c-.154 0-.28-.111-.28-.248V4.41c0-.137.126-.248.28-.248h.111c.155 0 .28.11.28.247V8.84c0 .137-.125.248-.28.248H5.95zM6.162 2.89h-.33a.231.231 0 0 0-.23.231v.396c0 .128.103.231.23.231h.33a.231.231 0 0 0 .231-.23V3.12a.231.231 0 0 0-.231-.23" fill="#FFF"></path></g></svg><svg width="12" height="12" viewBox="0 0 12 12" id="info-orange-filled" x="322" y="219"><title>info orange active</title><g fill="none" fill-rule="evenodd"><path d="M10.243 1.757A5.96 5.96 0 0 0 6 0a5.96 5.96 0 0 0-4.243 1.757A5.96 5.96 0 0 0 0 6a5.96 5.96 0 0 0 1.757 4.243A5.96 5.96 0 0 0 6 12a5.96 5.96 0 0 0 4.243-1.757A5.96 5.96 0 0 0 12 6a5.96 5.96 0 0 0-1.757-4.243" fill="#F2AA00"></path><path d="M5.95 9.087c-.154 0-.28-.111-.28-.248V4.41c0-.137.126-.248.28-.248h.111c.155 0 .28.11.28.247V8.84c0 .137-.125.248-.28.248H5.95zM6.162 2.89h-.33a.231.231 0 0 0-.23.231v.396c0 .128.103.231.23.231h.33a.231.231 0 0 0 .231-.23V3.12a.231.231 0 0 0-.231-.23" fill="#FFF"></path></g></svg><svg width="12" height="12" viewBox="0 0 12 12" id="info-orange-lined" x="334" y="231"><title>info orange</title><g fill="none" fill-rule="evenodd"><path d="M10.243 1.757A5.96 5.96 0 0 0 6 0a5.96 5.96 0 0 0-4.243 1.757A5.96 5.96 0 0 0 0 6a5.96 5.96 0 0 0 1.757 4.243A5.96 5.96 0 0 0 6 12a5.96 5.96 0 0 0 4.243-1.757A5.96 5.96 0 0 0 12 6a5.96 5.96 0 0 0-1.757-4.243" fill="#F2AA00"></path><path d="M6 11.341A5.342 5.342 0 1 1 6 .658a5.342 5.342 0 0 1 0 10.683" fill="#FFF"></path><path d="M5.95 9.087c-.154 0-.28-.111-.28-.248V4.41c0-.137.126-.248.28-.248h.111c.155 0 .28.11.28.247V8.84c0 .137-.125.248-.28.248H5.95zM6.162 2.89h-.33a.231.231 0 0 0-.23.231v.396c0 .128.103.231.23.231h.33a.231.231 0 0 0 .231-.23V3.12a.231.231 0 0 0-.231-.23" fill="#F2AA00"></path></g></svg><svg width="12" height="12" viewBox="0 0 12 12" id="info-red-lined" x="346" y="243"><title>info</title><g fill="none" fill-rule="evenodd"><path d="M10.243 1.757A5.96 5.96 0 0 0 6 0a5.96 5.96 0 0 0-4.243 1.757A5.96 5.96 0 0 0 0 6a5.96 5.96 0 0 0 1.757 4.243A5.96 5.96 0 0 0 6 12a5.96 5.96 0 0 0 4.243-1.757A5.96 5.96 0 0 0 12 6a5.96 5.96 0 0 0-1.757-4.243" fill="#DA251D"></path><path d="M6 11.341A5.342 5.342 0 1 1 6 .658a5.342 5.342 0 0 1 0 10.683" fill="#FFF"></path><path d="M5.95 9.087c-.154 0-.28-.111-.28-.248V4.41c0-.137.126-.248.28-.248h.111c.155 0 .28.11.28.247V8.84c0 .137-.125.248-.28.248H5.95zM6.162 2.89h-.33a.231.231 0 0 0-.23.231v.396c0 .128.103.231.23.231h.33a.231.231 0 0 0 .231-.23V3.12a.231.231 0 0 0-.231-.23" fill="#DA251D"></path></g></svg><svg width="13" height="16" viewBox="0 0 13 16" id="location" x="358" y="255"><title>location</title><g fill="none" fill-rule="evenodd"><path d="M12.351 6.164a6.296 6.296 0 0 0-1.825-4.353A6.092 6.092 0 0 0 6.074.001a6.193 6.193 0 0 0-4.255 1.792A6.102 6.102 0 0 0 0 6.18c.006 1.76.97 3.899 2.874 6.355 1.375 1.776 2.73 3.053 2.787 3.107l.29.273c.117.11.301.114.42.007l.301-.264a25.55 25.55 0 0 0 2.83-3.023c1.923-2.42 2.88-4.598 2.85-6.471z" fill="#666"></path><path d="M6.397 14.893a.316.316 0 0 1-.436-.007C4.96 13.897.764 9.556.751 6.176.74 3.182 3.181.754 6.174.754 9.17.753 11.55 3.18 11.6 6.177c.06 3.593-4.183 7.764-5.203 8.716z" fill="#FFF"></path><path d="M6.274 2.735c-1.76 0-3.19 1.43-3.19 3.19 0 1.758 1.43 3.19 3.19 3.19s3.19-1.432 3.19-3.19c0-1.76-1.43-3.19-3.19-3.19z" fill="#666"></path><path d="M6.274 8.362a2.439 2.439 0 1 1 0 0z" fill="#FFF"></path></g></svg><svg width="30" height="30" viewBox="0 0 30 30" id="ontime" x="371" y="271"><title>ontime</title><g fill="none" fill-rule="evenodd"><path d="M21.608 13.563c-4.519 0-8.196 3.677-8.196 8.196 0 4.52 3.677 8.196 8.196 8.196 4.52 0 8.196-3.677 8.196-8.196s-3.677-8.196-8.196-8.196" fill="#84C225"></path><path d="M21.608 28.518a6.759 6.759 0 1 1 0-13.518 6.759 6.759 0 0 1 0 13.518" fill="#FFF"></path><path d="M13.977 27.08c-6.959-.152-12.552-5.845-12.54-12.843a12.8 12.8 0 0 1 12.823-12.8c7.082 0 12.823 5.741 12.823 12.823v.002a.41.41 0 0 0 .152.322c.2.16.394.328.58.504a.41.41 0 0 0 .695-.28 14.167 14.167 0 0 0-4.167-10.632A14.244 14.244 0 0 0 14.26 0C10.451 0 6.87 1.483 4.177 4.177A14.166 14.166 0 0 0 0 14.26c0 3.787 1.5 7.406 4.177 10.083a14.167 14.167 0 0 0 10.31 4.175.411.411 0 0 0 .3-.687 9.222 9.222 0 0 1-.492-.593.41.41 0 0 0-.318-.159" fill="#606060"></path><path d="M14.395 5.906h-.24a.599.599 0 0 1-.599-.599V3.32c0-.33.268-.599.6-.599h.239c.33 0 .598.269.598.6v1.986c0 .331-.268.6-.598.6M2.518 14.404v-.24c0-.33.268-.599.599-.599h1.987c.33 0 .599.268.599.6v.239c0 .33-.268.598-.6.598H3.118a.599.599 0 0 1-.599-.598" fill="#606060"></path><path d="M19.568 25.087l-2.138-2.138a.599.599 0 0 1 0-.847l.17-.17a.599.599 0 0 1 .847 0l1.333 1.334a.3.3 0 0 0 .423 0l4.327-4.326a.599.599 0 0 1 .847 0l.17.169a.599.599 0 0 1 0 .847l-5.132 5.13a.599.599 0 0 1-.847 0" fill="#84C225"></path><path d="M5.009 9.586a.719.719 0 1 1-1.438 0 .719.719 0 0 1 1.438 0M5.188 19.268a.719.719 0 1 1-1.437 0 .719.719 0 0 1 1.437 0M24.8 9.898a.719.719 0 1 1-1.438 0 .719.719 0 0 1 1.438 0M8.426 5.54a.719.719 0 1 1-1.437 0 .719.719 0 0 1 1.437 0M9.112 23.52a.719.719 0 1 1-1.438 0 .719.719 0 0 1 1.438 0M21.226 5.54a.719.719 0 1 1-1.437 0 .719.719 0 0 1 1.437 0M11.451 11.26l2.52 2.519a.3.3 0 0 0 .423 0l3.303-3.303a.599.599 0 0 1 .847 0l.17.17a.599.599 0 0 1 0 .846l-4.108 4.107a.599.599 0 0 1-.847 0l-3.324-3.324a.599.599 0 0 1 0-.846l.17-.17a.599.599 0 0 1 .846 0" fill="#606060"></path></g></svg><svg width="30" height="30" viewBox="0 0 30 30" id="pay" x="401" y="301"><title>PAy</title><g fill="none" fill-rule="evenodd"><path d="M20.58 0a9.388 9.388 0 1 0-.001 18.775A9.388 9.388 0 0 0 20.58 0z" fill="#84C225"></path><path d="M20.58 17.24a7.852 7.852 0 1 1-.001-15.704 7.852 7.852 0 0 1 .001 15.703z" fill="#FFF"></path><rect fill="#8F8F8F" fill-rule="nonzero" x="12.119" y="19.69" width="1.44" height="5.4" rx=".72"></rect><rect fill="#8F8F8F" fill-rule="nonzero" x="8.519" y="19.69" width="1.44" height="5.4" rx=".72"></rect><rect fill="#8F8F8F" fill-rule="nonzero" x="15.719" y="19.69" width="1.44" height="5.4" rx=".72"></rect><path d="M23.773 19.276a1.02 1.02 0 0 0-.692.772L22.21 24.5c-.379 2.322-1.272 4.163-4.74 4.028h-9.54c-3.114.078-4.324-1.074-4.74-4.028l-1.601-8.18a.6.6 0 0 1 .588-.715h8.927a.6.6 0 0 0 .517-.905l-.01-.014a1.063 1.063 0 0 0-.91-.52H8.347a.3.3 0 0 1-.3-.341 5.126 5.126 0 0 1 1.468-2.961c.4-.407.622-.955.616-1.526v-.01a.389.389 0 0 0-.605-.321 6.587 6.587 0 0 0-2.91 4.637.6.6 0 0 1-.594.523H1.2a1.2 1.2 0 0 0-1.179 1.42L1.967 25.94a4.8 4.8 0 0 0 4.74 4.028h11.988a4.8 4.8 0 0 0 4.74-4.028l1.125-5.985a.6.6 0 0 0-.768-.684l-.019.005z" fill="#8F8F8F"></path><path d="M17.786 4.897h6.212v.013c-.366.564-.573.866-.62.904h-1.66c.228.267.383.592.465.976h1.77c.021.004.032.012.032.025-.396.594-.598.892-.607.892h-1.15c-.025.305-.172.673-.439 1.104-.353.435-.69.717-1.014.846-.602.288-1.18.432-1.73.432v.013c0 .043.135.222.407.536l3.067 3.7v.175c0 .017-.01.026-.032.026h-1.35c-2.428-2.829-3.642-4.25-3.642-4.262v-.86l.013-.032c.215.03.467.046.755.046 1.36 0 2.207-.442 2.538-1.324.052-.13.078-.263.078-.4h-3.694c-.017 0-.026-.01-.026-.026.41-.594.618-.891.627-.891h2.931v-.013c-.168-.34-.493-.605-.975-.795a3.044 3.044 0 0 0-.93-.168h-1.64v-.032c.396-.59.6-.885.614-.885z" fill="#84C225"></path></g></svg><svg width="28" height="30" viewBox="0 0 28 30" id="quality" x="431" y="331"><title>quality</title><g fill="none" fill-rule="evenodd"><path d="M23.32 12.55l-2.752-6.114a.3.3 0 0 1-.017-.099V4.533h.22c.328 0 .596-.267.596-.597V.656A.596.596 0 0 0 20.77.06h-7.016a.596.596 0 0 0-.596.596v3.28c0 .33.267.597.596.597h.22v1.804a.298.298 0 0 1-.018.1l-2.752 6.113a.596.596 0 0 0-.034.199v3.348c0 .296.216.546.509.59.068.01.137.022.207.036a.597.597 0 0 0 .715-.584v-3.107c0-.034.006-.068.017-.1l2.77-6.162a.298.298 0 0 0 .017-.099v-1.84c0-.165.133-.298.298-.298h3.119c.164 0 .298.133.298.298v1.84a.3.3 0 0 0 .017.1l2.769 6.162a.3.3 0 0 1 .017.099V28.24a.298.298 0 0 1-.298.298h-8.019a.597.597 0 0 0-.447.203 9.23 9.23 0 0 1-.203.222.596.596 0 0 0 .432 1.007h9.37c.33 0 .596-.267.596-.597V12.75a.597.597 0 0 0-.034-.199z" fill="#606060"></path><path d="M19.875 2.744a.298.298 0 0 1-.298.298h-4.63a.298.298 0 0 1-.298-.298v-.895c0-.165.133-.298.298-.298h4.63c.165 0 .298.133.298.298v.895z" fill="#FFF"></path><path d="M13.984 18.998c-1.046-1.456-2.358-1.762-3.275-1.762a4.68 4.68 0 0 0-1.298.194.298.298 0 0 1-.38-.323c.075-.604.208-1.35.441-2.108a.595.595 0 0 0-.362-.73l-.224-.084a.597.597 0 0 0-.779.384c-.253.821-.436 2.035-.516 2.632a.297.297 0 0 1-.379.247 4.712 4.712 0 0 0-1.357-.212c-.917 0-2.23.306-3.276 1.762-.818 1.14-1.132 2.57-.91 4.14.2 1.4.781 2.604 1.11 3.197.46.828 2.157 3.53 4.695 3.53.272 0 .542-.03.808-.093.265.062.535.094.807.094 2.538 0 4.235-2.703 4.695-3.53.329-.594.91-1.798 1.11-3.199.223-1.568-.092-3-.91-4.139" fill="#84C225"></path><path d="M12.532 25.64c-.47.849-2.144 3.381-4.155 2.67a.287.287 0 0 0-.19 0c-2.011.711-3.685-1.821-4.156-2.67-.764-1.376-1.659-3.9-.289-5.807 1.513-2.108 3.755-.793 4.377-.385a.296.296 0 0 0 .325 0c.622-.408 2.864-1.723 4.377.385 1.37 1.907.475 4.431-.289 5.808" fill="#FFF"></path><path fill="#606060" d="M9.76 5.759l2.047.935-2.047.935-.935 2.047-.935-2.047-2.047-.935 2.047-.935.935-2.047zM2.596 12.038l1.356.62-1.356.62-.62 1.356-.62-1.357L0 12.657l1.356-.619.62-1.356zM2.61 5.682l.909.415-.908.415-.415.908-.415-.908-.907-.415.907-.415.415-.907zM26.778 9.84l.908.415-.908.415-.414.908-.415-.908-.908-.415.908-.414.415-.908zM27.284.728l.555.254-.555.254-.254.555-.254-.555-.556-.254.556-.254.254-.556z"></path><path fill="#84C225" d="M5.978 1.027l.908.415-.908.415-.415.908-.415-.908-.908-.415.908-.415.415-.908zM25.222 4.534l1.446.66-1.446.661-.66 1.446-.66-1.446-1.446-.66 1.445-.66.66-1.447z"></path></g></svg><svg width="30" height="30" viewBox="0 0 30 30" id="return" x="459" y="361"><title>return</title><g fill="none" fill-rule="evenodd"><path d="M24.84 5.114A14.456 14.456 0 0 0 14.55.852c-2.313 0-4.545.537-6.552 1.551l.874 1.21a13.029 13.029 0 0 1 5.549-1.294 13.052 13.052 0 0 1 13.214 13.064c.01 7.236-5.851 13.105-13.084 13.105-7.226 0-13.085-5.859-13.085-13.085l.001-.122a.61.61 0 0 0-.61-.616H.612a.612.612 0 0 0-.611.605L0 15.403c0 3.887 1.514 7.541 4.262 10.29a14.534 14.534 0 0 0 10.289 4.261c3.886 0 7.54-1.513 10.289-4.262a14.455 14.455 0 0 0 4.262-10.289c0-3.886-1.514-7.54-4.262-10.289" fill="#84C225"></path><path d="M5.437.421L2.811 6.283a.611.611 0 0 0 .62.857l6.39-.657a.611.611 0 0 0 .432-.965L6.49.313A.611.611 0 0 0 5.437.42" fill="#84C225"></path><path d="M6.48 2.802l1.407 1.945a.306.306 0 0 1-.217.483l-2.388.246a.305.305 0 0 1-.31-.429l.981-2.191a.306.306 0 0 1 .527-.054" fill="#FFF"></path><path d="M18.633 11.595a.6.6 0 0 1-.59-.506 3.193 3.193 0 0 0-3.147-2.676c-1.583 0-2.9 1.16-3.146 2.676a.6.6 0 0 1-.59.506H7.267a.598.598 0 0 0-.593.673l1.076 7.25a3.586 3.586 0 0 0 3.557 3.132h7.179a3.586 3.586 0 0 0 3.557-3.133l1.075-7.249a.598.598 0 0 0-.592-.673h-3.893z" fill="#606060"></path><path d="M18.275 21.215h-6.757a2.39 2.39 0 0 1-2.372-2.088l-.886-5.761a.299.299 0 0 1 .296-.337h12.68c.18 0 .32.158.297.337l-.887 5.761a2.39 2.39 0 0 1-2.37 2.088zM14.896 9.848c.842 0 1.546.595 1.715 1.387a.299.299 0 0 1-.293.36h-2.844a.299.299 0 0 1-.292-.36 1.756 1.756 0 0 1 1.714-1.387z" fill="#FFF"></path><path d="M14.963 19.21h-.239a.598.598 0 0 1-.597-.597v-3.048c0-.33.267-.597.597-.597h.24c.33 0 .597.267.597.597v3.048c0 .33-.268.598-.598.598M17.593 19.21h-.24a.598.598 0 0 1-.597-.597v-3.048c0-.33.268-.597.598-.597h.239c.33 0 .597.267.597.597v3.048c0 .33-.267.598-.597.598M12.334 19.21h-.24a.598.598 0 0 1-.597-.597v-3.048c0-.33.268-.597.598-.597h.239c.33 0 .597.267.597.597v3.048c0 .33-.267.598-.597.598" fill="#606060"></path></g></svg><svg width="20" height="20" viewBox="0 0 20 20" id="rupee-circle" x="489" y="391"><title>Group</title><g fill="none" fill-rule="evenodd"><path d="M17.088 2.946A9.939 9.939 0 0 0 9.784.002a10.008 10.008 0 0 0-6.9 2.973A9.934 9.934 0 0 0 0 10c0 1.854.505 3.645 1.464 5.212a.228.228 0 0 1 .026.179L.15 18.59a.684.684 0 0 0 .838.837l3.351-1.09a.228.228 0 0 1 .185.03A9.912 9.912 0 0 0 9.895 20c2.582.027 5.086-.949 6.964-2.722A9.94 9.94 0 0 0 20 10a9.99 9.99 0 0 0-2.912-7.054" fill="#666"></path><path d="M9.824 18.998a8.955 8.955 0 0 1-5.072-1.686.226.226 0 0 0-.19-.035l-2.97.986a.226.226 0 0 1-.277-.276l1.233-2.8a.226.226 0 0 0-.03-.184 8.955 8.955 0 0 1-1.516-4.833A8.977 8.977 0 0 1 9.888 1a9 9 0 0 1 9.111 9.114 8.957 8.957 0 0 1-9.175 8.884" fill="#FFF"></path><path d="M6.824 5H15v.016c-.482.702-.754 1.077-.816 1.125H12c.3.333.504.737.612 1.214h2.329c.028.005.042.016.042.032-.521.74-.788 1.11-.799 1.11h-1.513c-.034.38-.226.838-.578 1.374-.464.541-.909.892-1.334 1.053-.793.359-1.552.538-2.277.538v.016c0 .054.178.276.535.667l4.037 4.606v.217c0 .021-.014.032-.043.032h-1.776c-3.195-3.52-4.793-5.289-4.793-5.305v-1.069l.017-.04c.283.038.615.056.994.056 1.79 0 2.904-.549 3.34-1.647.068-.161.102-.327.102-.499H6.034c-.023 0-.034-.01-.034-.032.538-.74.813-1.109.824-1.109h3.859v-.016c-.221-.423-.65-.753-1.284-.989a4.215 4.215 0 0 0-1.223-.209H6.017v-.04C6.538 5.367 6.807 5 6.824 5" fill="#666"></path></g></svg><svg width="21" height="20" viewBox="0 0 21 20" id="star-filled" x="509" y="411"><title>Star 1</title><path d="M10.5 15.754L4.01 19l1.24-6.874L0 7.257l7.255-1.003L10.5 0l3.245 6.254L21 7.257l-5.25 4.869L16.99 19z" fill="#F2A900" stroke="#F2A900" stroke-width=".862" fill-rule="evenodd"></path></svg><svg width="20" height="13" viewBox="0 0 20 13" id="std-delivery" x="530" y="431"><title>std delivery</title><g fill="none" fill-rule="evenodd"><path d="M19.95 7.077l-2.398-4.264a.387.387 0 0 0-.337-.198h-4.41a.193.193 0 0 1-.194-.193V.424a.387.387 0 0 0-.387-.387H.387A.387.387 0 0 0 0 .424v10.4c0 .213.173.386.387.386h.706c.09 0 .167.062.189.15a2.17 2.17 0 0 0 2.103 1.647 2.17 2.17 0 0 0 2.103-1.647.195.195 0 0 1 .189-.15h8.076c.089 0 .165.06.188.147a2.17 2.17 0 0 0 2.094 1.612 2.17 2.17 0 0 0 2.094-1.612.195.195 0 0 1 .188-.147h1.296a.387.387 0 0 0 .387-.387V7.266a.386.386 0 0 0-.05-.189z" fill="#666"></path><path d="M19.226 10.166a.193.193 0 0 1-.193.193h-.726a.195.195 0 0 1-.187-.144 2.17 2.17 0 0 0-2.085-1.576 2.17 2.17 0 0 0-2.085 1.576.195.195 0 0 1-.187.144h-.958a.193.193 0 0 1-.194-.193V3.582c0-.107.087-.193.194-.193h4.07c.07 0 .135.037.169.098L19.2 7.324a.193.193 0 0 1 .025.094v2.748zM11.76 10.166a.193.193 0 0 1-.193.193H5.645a.195.195 0 0 1-.186-.14 2.17 2.17 0 0 0-2.074-1.542A2.17 2.17 0 0 0 1.31 10.22a.195.195 0 0 1-.186.14h-.08a.193.193 0 0 1-.194-.193V1.08c0-.107.087-.193.193-.193h10.523c.107 0 .193.086.193.193v9.085z" fill="#FFF"></path><path d="M16.035 12.196a1.392 1.392 0 1 1-.001-2.785 1.392 1.392 0 0 1 0 2.785zM3.385 12.234a1.392 1.392 0 1 1-.001-2.784 1.392 1.392 0 0 1 0 2.784z" fill="#FFF"></path><path d="M17.735 6.764l-1.24-2.232a.387.387 0 0 0-.339-.199H13.84a.387.387 0 0 0-.386.387v2.232c0 .214.173.387.386.387h3.557a.387.387 0 0 0 .338-.575" fill="#666"></path><path d="M16.411 6.566H14.42a.193.193 0 0 1-.193-.194V5.3c0-.107.086-.194.193-.194h1.395c.07 0 .135.039.17.1l.595 1.072a.193.193 0 0 1-.169.288" fill="#FFF"></path></g></svg><svg width="30" height="30" viewBox="0 0 30 30" id="success-lg" x="550" y="444"><title>Order placed\</title><g fill="none" fill-rule="evenodd"><circle fill="#84C225" fill-rule="nonzero" cx="15" cy="15" r="15"></circle><path stroke="#FFF" stroke-width="2" stroke-linecap="round" stroke-linejoin="round" d="M23 9l-9.846 11L7 15.111"></path></g></svg><svg width="30" height="30" viewBox="0 0 30 30" id="voucher" x="580" y="474"><title>voucher</title><g fill="none" fill-rule="evenodd"><path d="M29.818 13.3l-2.086-2.09a.608.608 0 0 1-.11-.708c.429-.847.651-1.784.649-2.733 0-2.369-1.351-4.53-3.688-5.597a.693.693 0 0 0-.05-.02c-1.745-.653-3.531-.53-5.018.225a.608.608 0 0 1-.708-.11L16.722.177a.605.605 0 0 0-.857 0L.177 15.836a.608.608 0 0 0 0 .86l2.07 2.073a.608.608 0 0 1 .107.713 6.022 6.022 0 0 0-.68 2.794c0 2.368 1.35 4.528 3.687 5.597l.05.02c1.77.661 3.579.527 5.077-.257a.608.608 0 0 1 .714.106l2.07 2.077c.237.237.62.237.858 0l15.688-15.66a.608.608 0 0 0 0-.859z" fill="#8F8F8F"></path><path d="M27.757 14.158L14.13 27.753a.605.605 0 0 1-.857 0l-2.286-2.29-.05.052a4.567 4.567 0 0 1-6.423-.044 4.59 4.59 0 0 1-.047-6.436l.053-.05-2.286-2.29a.608.608 0 0 1 0-.859L15.864 2.24a.605.605 0 0 1 .857 0L18.6 4.122c.217.22.563.242.807.052a4.568 4.568 0 0 1 6.065.36 4.59 4.59 0 0 1 .359 6.078.611.611 0 0 0 .053.808l1.878 1.883a.608.608 0 0 1-.005.855z" fill="#FFF"></path><rect fill="#84C225" fill-rule="nonzero" x="14.597" y="8" width="1.662" height="15.352" rx=".831"></rect><path d="M21.992 12.858a2.92 2.92 0 0 0-3.187-.635A2.93 2.93 0 0 0 17 14.93a2.93 2.93 0 0 0 1.805 2.707 2.92 2.92 0 0 0 3.187-.635 2.914 2.914 0 0 0 0-4.144z" fill="#84C225"></path><path d="M20.962 15.974a1.468 1.468 0 0 1-2.51-1.041c0-.596.359-1.133.908-1.36a1.468 1.468 0 0 1 1.602.318 1.475 1.475 0 0 1 0 2.083z" fill="#FFF"></path><path d="M12.992 12.858a2.92 2.92 0 0 0-3.187-.635A2.93 2.93 0 0 0 8 14.93a2.93 2.93 0 0 0 1.805 2.707 2.92 2.92 0 0 0 3.187-.635 2.914 2.914 0 0 0 0-4.144z" fill="#84C225"></path><path d="M11.962 15.971a1.468 1.468 0 0 1-2.51-1.04c0-.596.359-1.133.908-1.361a1.474 1.474 0 1 1 1.604 2.404l-.002-.003z" fill="#FFF"></path></g></svg></svg>